<svg width="30" height="51" viewBox="0 0 30 51" fill="none" xmlns="http://www.w3.org/2000/svg">
    <path fill-rule="evenodd" clip-rule="evenodd" d="M22.9248 2.5C22.9248 3.8803 19.5672 5 15.4251 5C11.2834 5 7.9248 3.8803 7.9248 2.5C7.9248 1.11913 11.2834 0 15.4251 0C19.5672 0 22.9248 1.11913 22.9248 2.5Z" fill="#0A090B"/>
    <path fill-rule="evenodd" clip-rule="evenodd" d="M15.2778 36.5675C9.14688 36.5675 4.16016 32.324 4.16016 27.1065C4.16016 21.8893 9.14688 17.6455 15.2778 17.6455C21.4087 17.6455 26.3955 21.8893 26.3955 27.1065C26.3955 32.324 21.4087 36.5675 15.2778 36.5675Z" fill="#F5E5A8"/>
    <path fill-rule="evenodd" clip-rule="evenodd" d="M15.2776 36.5675C9.1467 36.5675 4.16016 32.3239 4.16016 27.1064C4.16016 21.8891 9.1467 17.6455 15.2776 17.6455C21.4085 17.6455 26.3955 21.8891 26.3955 27.1064C26.3955 32.3239 21.4085 36.5675 15.2776 36.5675Z" fill="#F5E5A9"/>
    <path fill-rule="evenodd" clip-rule="evenodd" d="M15.2778 36.5675C9.14691 36.5675 4.16016 32.324 4.16016 27.1066C4.16016 21.889 9.14691 17.6455 15.2778 17.6455C21.4087 17.6455 26.3955 21.889 26.3955 27.1066C26.3955 32.324 21.4087 36.5675 15.2778 36.5675Z" fill="#F5E5A9"/>
    <path fill-rule="evenodd" clip-rule="evenodd" d="M15.2778 36.5675C9.14704 36.5675 4.16016 32.3241 4.16016 27.1066C4.16016 21.8889 9.14704 17.6455 15.2778 17.6455C21.4086 17.6455 26.3955 21.8889 26.3955 27.1066C26.3955 32.3241 21.4086 36.5675 15.2778 36.5675Z" fill="#F5E5A9"/>
    <path fill-rule="evenodd" clip-rule="evenodd" d="M15.2778 35.8917C9.14695 35.8917 4.16016 31.7998 4.16016 26.7685C4.16016 21.7374 9.14695 17.6455 15.2778 17.6455C21.4087 17.6455 26.3955 21.7374 26.3955 26.7685C26.3955 31.7998 21.4087 35.8917 15.2778 35.8917Z" fill="#F6E5AA"/>
    <path fill-rule="evenodd" clip-rule="evenodd" d="M15.6138 35.8917C9.66881 35.8917 4.83301 31.7996 4.83301 26.7685C4.83301 21.7374 9.66881 17.6455 15.6138 17.6455C21.5587 17.6455 26.3945 21.7374 26.3945 26.7685C26.3945 31.7996 21.5587 35.8917 15.6138 35.8917Z" fill="#F6E5AA"/>
    <path fill-rule="evenodd" clip-rule="evenodd" d="M15.6138 35.8917C9.66873 35.8917 4.83301 31.7999 4.83301 26.7687C4.83301 21.7373 9.66873 17.6455 15.6138 17.6455C21.5588 17.6455 26.3945 21.7373 26.3945 26.7687C26.3945 31.7999 21.5588 35.8917 15.6138 35.8917Z" fill="#F6E5AA"/>
    <path fill-rule="evenodd" clip-rule="evenodd" d="M15.6138 35.8917C9.66826 35.8917 4.83301 31.7998 4.83301 26.7686C4.83301 21.7374 9.66826 17.6455 15.6138 17.6455C21.5593 17.6455 26.3945 21.7374 26.3945 26.7686C26.3945 31.7998 21.5593 35.8917 15.6138 35.8917Z" fill="#F6E5AB"/>
    <path fill-rule="evenodd" clip-rule="evenodd" d="M15.6138 35.8917C9.66876 35.8917 4.83301 31.7997 4.83301 26.7687C4.83301 21.7375 9.66876 17.6455 15.6138 17.6455C21.5588 17.6455 26.3945 21.7375 26.3945 26.7687C26.3945 31.7997 21.5588 35.8917 15.6138 35.8917Z" fill="#F6E5AB"/>
    <path fill-rule="evenodd" clip-rule="evenodd" d="M15.6138 35.8917C9.66829 35.8917 4.83301 31.7998 4.83301 26.7685C4.83301 21.7374 9.66829 17.6455 15.6138 17.6455C21.5592 17.6455 26.3945 21.7374 26.3945 26.7685C26.3945 31.7998 21.5592 35.8917 15.6138 35.8917Z" fill="#F5E6AA"/>
    <path fill-rule="evenodd" clip-rule="evenodd" d="M15.6138 35.8917C9.66821 35.8917 4.83301 31.7999 4.83301 26.7685C4.83301 21.7373 9.66821 17.6455 15.6138 17.6455C21.5593 17.6455 26.3945 21.7373 26.3945 26.7685C26.3945 31.7999 21.5593 35.8917 15.6138 35.8917Z" fill="#F6E6AB"/>
    <path fill-rule="evenodd" clip-rule="evenodd" d="M15.6138 35.8917C9.66833 35.8917 4.83301 31.7998 4.83301 26.7687C4.83301 21.7374 9.66833 17.6455 15.6138 17.6455C21.5592 17.6455 26.3945 21.7374 26.3945 26.7687C26.3945 31.7998 21.5592 35.8917 15.6138 35.8917Z" fill="#F4E6AB"/>
    <path fill-rule="evenodd" clip-rule="evenodd" d="M15.6138 35.8917C9.66824 35.8917 4.83301 31.7999 4.83301 26.7687C4.83301 21.7373 9.66824 17.6455 15.6138 17.6455C21.5593 17.6455 26.3945 21.7373 26.3945 26.7687C26.3945 31.7999 21.5593 35.8917 15.6138 35.8917Z" fill="#F4E6AC"/>
    <path fill-rule="evenodd" clip-rule="evenodd" d="M15.6139 34.5401C10.7803 34.5401 6.85449 31.0575 6.85449 26.7686C6.85449 22.4797 10.7803 18.9971 15.6139 18.9971C20.4474 18.9971 24.3732 22.4797 24.3732 26.7686C24.3732 31.0575 20.4474 34.5401 15.6139 34.5401Z" fill="#F7F2CE"/>
    <path fill-rule="evenodd" clip-rule="evenodd" d="M15.6139 34.5401C10.78 34.5401 6.85449 31.0576 6.85449 26.7686C6.85449 22.4796 10.78 18.9971 15.6139 18.9971C20.4477 18.9971 24.3732 22.4796 24.3732 26.7686C24.3732 31.0576 20.4477 34.5401 15.6139 34.5401Z" fill="#F7F2CE"/>
    <path fill-rule="evenodd" clip-rule="evenodd" d="M15.6139 34.5401C10.7799 34.5401 6.85449 31.0575 6.85449 26.7685C6.85449 22.4797 10.7799 18.9971 15.6139 18.9971C20.4478 18.9971 24.3732 22.4797 24.3732 26.7685C24.3732 31.0575 20.4478 34.5401 15.6139 34.5401Z" fill="#F7F2CE"/>
    <path fill-rule="evenodd" clip-rule="evenodd" d="M15.277 34.5401C10.6285 34.5401 6.85449 31.2096 6.85449 27.1064C6.85449 23.0034 10.6285 19.6729 15.277 19.6729C19.9254 19.6729 23.6994 23.0034 23.6994 27.1064C23.6994 31.2096 19.9254 34.5401 15.277 34.5401Z" fill="#F7F4D5"/>
    <path fill-rule="evenodd" clip-rule="evenodd" d="M15.277 34.5401C10.6284 34.5401 6.85449 31.2097 6.85449 27.1065C6.85449 23.0035 10.6284 19.6729 15.277 19.6729C19.9255 19.6729 23.6994 23.0035 23.6994 27.1065C23.6994 31.2097 19.9255 34.5401 15.277 34.5401Z" fill="#F7F4D5"/>
    <path fill-rule="evenodd" clip-rule="evenodd" d="M15.277 34.5401C10.6282 34.5401 6.85449 31.2094 6.85449 27.1066C6.85449 23.0036 10.6282 19.6729 15.277 19.6729C19.9257 19.6729 23.6994 23.0036 23.6994 27.1066C23.6994 31.2094 19.9257 34.5401 15.277 34.5401Z" fill="#F7F4D6"/>
    <path fill-rule="evenodd" clip-rule="evenodd" d="M15.277 34.5401C10.6281 34.5401 6.85449 31.2097 6.85449 27.1066C6.85449 23.0035 10.6281 19.6729 15.277 19.6729C19.9258 19.6729 23.6994 23.0035 23.6994 27.1066C23.6994 31.2097 19.9258 34.5401 15.277 34.5401Z" fill="#F7F4D6"/>
    <path fill-rule="evenodd" clip-rule="evenodd" d="M15.277 34.5401C10.6286 34.5401 6.85449 31.2098 6.85449 27.1066C6.85449 23.0034 10.6286 19.6729 15.277 19.6729C19.9253 19.6729 23.6994 23.0034 23.6994 27.1066C23.6994 31.2098 19.9253 34.5401 15.277 34.5401Z" fill="#F7F4D6"/>
    <path fill-rule="evenodd" clip-rule="evenodd" d="M15.277 34.5401C10.6281 34.5401 6.85449 31.2094 6.85449 27.1062C6.85449 23.0033 10.6281 19.6729 15.277 19.6729C19.9258 19.6729 23.6994 23.0033 23.6994 27.1062C23.6994 31.2094 19.9258 34.5401 15.277 34.5401Z" fill="#F7F4D7"/>
    <path fill-rule="evenodd" clip-rule="evenodd" d="M15.277 34.5401C10.628 34.5401 6.85449 31.2096 6.85449 27.1066C6.85449 23.0034 10.628 19.6729 15.277 19.6729C19.9259 19.6729 23.6994 23.0034 23.6994 27.1066C23.6994 31.2096 19.9259 34.5401 15.277 34.5401Z" fill="#F7F7D8"/>
    <path fill-rule="evenodd" clip-rule="evenodd" d="M15.277 34.5401C10.6281 34.5401 6.85449 31.2097 6.85449 27.1066C6.85449 23.0033 10.6281 19.6729 15.277 19.6729C19.9258 19.6729 23.6994 23.0033 23.6994 27.1066C23.6994 31.2097 19.9258 34.5401 15.277 34.5401Z" fill="#F7F7D8"/>
    <path fill-rule="evenodd" clip-rule="evenodd" d="M15.277 34.5401C10.628 34.5401 6.85449 31.2098 6.85449 27.1066C6.85449 23.0032 10.628 19.6729 15.277 19.6729C19.9259 19.6729 23.6994 23.0032 23.6994 27.1066C23.6994 31.2098 19.9259 34.5401 15.277 34.5401Z" fill="#F7F7D9"/>
    <path fill-rule="evenodd" clip-rule="evenodd" d="M15.277 34.5401C10.6281 34.5401 6.85449 31.2097 6.85449 27.1065C6.85449 23.003 10.6281 19.6729 15.277 19.6729C19.9258 19.6729 23.6994 23.003 23.6994 27.1065C23.6994 31.2097 19.9258 34.5401 15.277 34.5401Z" fill="#F7F7D9"/>
    <path fill-rule="evenodd" clip-rule="evenodd" d="M15.277 34.5401C10.628 34.5401 6.85449 31.2098 6.85449 27.1066C6.85449 23.0031 10.628 19.6729 15.277 19.6729C19.9259 19.6729 23.6994 23.0031 23.6994 27.1066C23.6994 31.2098 19.9259 34.5401 15.277 34.5401Z" fill="#F7F7D9"/>
    <path fill-rule="evenodd" clip-rule="evenodd" d="M15.277 34.5401C10.6281 34.5401 6.85449 31.2099 6.85449 27.1066C6.85449 23.003 10.6281 19.6729 15.277 19.6729C19.9258 19.6729 23.6994 23.003 23.6994 27.1066C23.6994 31.2099 19.9258 34.5401 15.277 34.5401Z" fill="#F7F7DA"/>
    <path fill-rule="evenodd" clip-rule="evenodd" d="M15.277 34.5401C10.6276 34.5401 6.85449 31.2098 6.85449 27.1065C6.85449 23.0032 10.6276 19.6729 15.277 19.6729C19.9263 19.6729 23.6994 23.0032 23.6994 27.1065C23.6994 31.2098 19.9263 34.5401 15.277 34.5401Z" fill="#F7F7DA"/>
    <path fill-rule="evenodd" clip-rule="evenodd" d="M15.277 33.8643C10.6278 33.8643 6.85449 30.6855 6.85449 26.7686C6.85449 22.8517 10.6278 19.6729 15.277 19.6729C19.9261 19.6729 23.6994 22.8517 23.6994 26.7686C23.6994 30.6855 19.9261 33.8643 15.277 33.8643Z" fill="#F7F7DA"/>
    <path fill-rule="evenodd" clip-rule="evenodd" d="M15.277 33.8643C10.6281 33.8643 6.85449 30.6857 6.85449 26.7687C6.85449 22.8518 10.6281 19.6729 15.277 19.6729C19.9258 19.6729 23.6994 22.8518 23.6994 26.7687C23.6994 30.6857 19.9258 33.8643 15.277 33.8643Z" fill="#F8F7DB"/>
    <path fill-rule="evenodd" clip-rule="evenodd" d="M15.277 33.8643C10.6276 33.8643 6.85449 30.6856 6.85449 26.7686C6.85449 22.8516 10.6276 19.6729 15.277 19.6729C19.9263 19.6729 23.6994 22.8516 23.6994 26.7686C23.6994 30.6856 19.9263 33.8643 15.277 33.8643Z" fill="#F8F7DB"/>
    <path fill-rule="evenodd" clip-rule="evenodd" d="M15.277 33.8643C10.6277 33.8643 6.85449 30.6857 6.85449 26.7686C6.85449 22.8515 10.6277 19.6729 15.277 19.6729C19.9262 19.6729 23.6994 22.8515 23.6994 26.7686C23.6994 30.6857 19.9262 33.8643 15.277 33.8643Z" fill="#F8F7DB"/>
    <path fill-rule="evenodd" clip-rule="evenodd" d="M15.277 33.8643C10.6276 33.8643 6.85449 30.6858 6.85449 26.7686C6.85449 22.8514 10.6276 19.6729 15.277 19.6729C19.9263 19.6729 23.6994 22.8514 23.6994 26.7686C23.6994 30.6858 19.9263 33.8643 15.277 33.8643Z" fill="#F8F7DC"/>
    <path fill-rule="evenodd" clip-rule="evenodd" d="M15.6139 33.8643C11.1504 33.8643 7.52832 30.6859 7.52832 26.7686C7.52832 22.8513 11.1504 19.6729 15.6139 19.6729C20.0774 19.6729 23.6994 22.8513 23.6994 26.7686C23.6994 30.6859 20.0774 33.8643 15.6139 33.8643Z" fill="#F8F7DC"/>
    <path fill-rule="evenodd" clip-rule="evenodd" d="M15.6139 33.8643C11.1505 33.8643 7.52832 30.6858 7.52832 26.7686C7.52832 22.8514 11.1505 19.6729 15.6139 19.6729C20.0773 19.6729 23.6994 22.8514 23.6994 26.7686C23.6994 30.6858 20.0773 33.8643 15.6139 33.8643Z" fill="#F8F6DD"/>
    <path fill-rule="evenodd" clip-rule="evenodd" d="M15.6139 33.8643C11.1504 33.8643 7.52832 30.6859 7.52832 26.7686C7.52832 22.8513 11.1504 19.6729 15.6139 19.6729C20.0774 19.6729 23.6994 22.8513 23.6994 26.7686C23.6994 30.6859 20.0774 33.8643 15.6139 33.8643Z" fill="#F8F6DD"/>
    <path fill-rule="evenodd" clip-rule="evenodd" d="M15.6139 33.8643C11.1505 33.8643 7.52832 30.6857 7.52832 26.7686C7.52832 22.8512 11.1505 19.6729 15.6139 19.6729C20.0773 19.6729 23.6994 22.8512 23.6994 26.7686C23.6994 30.6857 20.0773 33.8643 15.6139 33.8643Z" fill="#F8F6DD"/>
    <path fill-rule="evenodd" clip-rule="evenodd" d="M15.6139 33.8643C11.1504 33.8643 7.52832 30.686 7.52832 26.7686C7.52832 22.8515 11.1504 19.6729 15.6139 19.6729C20.0774 19.6729 23.6994 22.8515 23.6994 26.7686C23.6994 30.686 20.0774 33.8643 15.6139 33.8643Z" fill="#F8F8DE"/>
    <path fill-rule="evenodd" clip-rule="evenodd" d="M15.6139 33.8643C11.1501 33.8643 7.52832 30.6861 7.52832 26.7686C7.52832 22.8514 11.1501 19.6729 15.6139 19.6729C20.0776 19.6729 23.6994 22.8514 23.6994 26.7686C23.6994 30.6861 20.0776 33.8643 15.6139 33.8643Z" fill="#F8F8DE"/>
    <path fill-rule="evenodd" clip-rule="evenodd" d="M15.6139 33.8643C11.1504 33.8643 7.52832 30.6859 7.52832 26.7686C7.52832 22.851 11.1504 19.6729 15.6139 19.6729C20.0773 19.6729 23.6994 22.851 23.6994 26.7686C23.6994 30.6859 20.0773 33.8643 15.6139 33.8643Z" fill="#F8F8DE"/>
    <path fill-rule="evenodd" clip-rule="evenodd" d="M15.6139 33.8643C11.1501 33.8643 7.52832 30.686 7.52832 26.7686C7.52832 22.8512 11.1501 19.6729 15.6139 19.6729C20.0776 19.6729 23.6994 22.8512 23.6994 26.7686C23.6994 30.686 20.0776 33.8643 15.6139 33.8643Z" fill="#F8F8E0"/>
    <path fill-rule="evenodd" clip-rule="evenodd" d="M15.6139 33.8643C11.15 33.8643 7.52832 30.6861 7.52832 26.7685C7.52832 22.8511 11.15 19.6729 15.6139 19.6729C20.0777 19.6729 23.6994 22.8511 23.6994 26.7685C23.6994 30.6861 20.0777 33.8643 15.6139 33.8643Z" fill="#F8F8E0"/>
    <path fill-rule="evenodd" clip-rule="evenodd" d="M15.6139 33.8643C11.1499 33.8643 7.52832 30.686 7.52832 26.7686C7.52832 22.8512 11.1499 19.6729 15.6139 19.6729C20.0778 19.6729 23.6994 22.8512 23.6994 26.7686C23.6994 30.686 20.0778 33.8643 15.6139 33.8643Z" fill="#F8F8E0"/>
    <path fill-rule="evenodd" clip-rule="evenodd" d="M15.6139 33.8643C11.1501 33.8643 7.52832 30.6859 7.52832 26.7685C7.52832 22.851 11.1501 19.6729 15.6139 19.6729C20.0777 19.6729 23.6994 22.851 23.6994 26.7685C23.6994 30.6859 20.0777 33.8643 15.6139 33.8643Z" fill="#F8F9E1"/>
    <path fill-rule="evenodd" clip-rule="evenodd" d="M15.6139 33.8643C11.15 33.8643 7.52832 30.686 7.52832 26.7685C7.52832 22.8509 11.15 19.6729 15.6139 19.6729C20.0778 19.6729 23.6994 22.8509 23.6994 26.7685C23.6994 30.686 20.0778 33.8643 15.6139 33.8643Z" fill="#F8F9E1"/>
    <path fill-rule="evenodd" clip-rule="evenodd" d="M15.6139 33.8643C11.1501 33.8643 7.52832 30.6862 7.52832 26.7686C7.52832 22.851 11.1501 19.6729 15.6139 19.6729C20.0777 19.6729 23.6994 22.851 23.6994 26.7686C23.6994 30.6862 20.0777 33.8643 15.6139 33.8643Z" fill="#F8F9E1"/>
    <path fill-rule="evenodd" clip-rule="evenodd" d="M15.277 33.8643C10.9991 33.8643 7.52832 30.6863 7.52832 26.7686C7.52832 22.8509 10.9991 19.6729 15.277 19.6729C19.5549 19.6729 23.0256 22.8509 23.0256 26.7686C23.0256 30.6863 19.5549 33.8643 15.277 33.8643Z" fill="#F8F9E3"/>
    <path fill-rule="evenodd" clip-rule="evenodd" d="M15.277 33.8643C10.9992 33.8643 7.52832 30.6862 7.52832 26.7685C7.52832 22.851 10.9992 19.6729 15.277 19.6729C19.5548 19.6729 23.0256 22.851 23.0256 26.7685C23.0256 30.6862 19.5548 33.8643 15.277 33.8643Z" fill="#F8F9E3"/>
    <path fill-rule="evenodd" clip-rule="evenodd" d="M15.277 33.8643C10.9987 33.8643 7.52832 30.6863 7.52832 26.7685C7.52832 22.8509 10.9987 19.6729 15.277 19.6729C19.5553 19.6729 23.0256 22.8509 23.0256 26.7685C23.0256 30.6863 19.5553 33.8643 15.277 33.8643Z" fill="#F8F9E3"/>
    <path fill-rule="evenodd" clip-rule="evenodd" d="M15.277 33.8643C10.999 33.8643 7.52832 30.6864 7.52832 26.7685C7.52832 22.8508 10.999 19.6729 15.277 19.6729C19.555 19.6729 23.0256 22.8508 23.0256 26.7685C23.0256 30.6864 19.555 33.8643 15.277 33.8643Z" fill="#F9F9E4"/>
    <path fill-rule="evenodd" clip-rule="evenodd" d="M15.277 33.8643C10.9991 33.8643 7.52832 30.6863 7.52832 26.7687C7.52832 22.8509 10.9991 19.6729 15.277 19.6729C19.5549 19.6729 23.0256 22.8509 23.0256 26.7687C23.0256 30.6863 19.5549 33.8643 15.277 33.8643Z" fill="#F7F8E4"/>
    <path fill-rule="evenodd" clip-rule="evenodd" d="M15.277 33.8643C10.9986 33.8643 7.52832 30.6864 7.52832 26.7687C7.52832 22.8508 10.9986 19.6729 15.277 19.6729C19.5554 19.6729 23.0256 22.8508 23.0256 26.7687C23.0256 30.6864 19.5554 33.8643 15.277 33.8643Z" fill="#F7F8E5"/>
    <path fill-rule="evenodd" clip-rule="evenodd" d="M15.277 33.1886C10.9985 33.1886 7.52832 30.1621 7.52832 26.4306C7.52832 22.6993 10.9985 19.6729 15.277 19.6729C19.5555 19.6729 23.0256 22.6993 23.0256 26.4306C23.0256 30.1621 19.5555 33.1886 15.277 33.1886Z" fill="#F6F8E4"/>
    <path fill-rule="evenodd" clip-rule="evenodd" d="M15.277 33.1886C10.9986 33.1886 7.52832 30.1622 7.52832 26.4307C7.52832 22.6995 10.9986 19.6729 15.277 19.6729C19.5554 19.6729 23.0256 22.6995 23.0256 26.4307C23.0256 30.1622 19.5554 33.1886 15.277 33.1886Z" fill="#F6F8E4"/>
    <path fill-rule="evenodd" clip-rule="evenodd" d="M15.277 33.1886C10.9985 33.1886 7.52832 30.1621 7.52832 26.4306C7.52832 22.6993 10.9985 19.6729 15.277 19.6729C19.5555 19.6729 23.0256 22.6993 23.0256 26.4306C23.0256 30.1621 19.5555 33.1886 15.277 33.1886Z" fill="#F7F8E6"/>
    <path fill-rule="evenodd" clip-rule="evenodd" d="M15.277 33.1886C10.9986 33.1886 7.52832 30.1622 7.52832 26.4308C7.52832 22.6992 10.9986 19.6729 15.277 19.6729C19.5553 19.6729 23.0256 22.6992 23.0256 26.4308C23.0256 30.1622 19.5553 33.1886 15.277 33.1886Z" fill="#F7F8E6"/>
    <path fill-rule="evenodd" clip-rule="evenodd" d="M15.2773 50.4652C7.36134 50.4652 0.94043 43.5705 0.94043 35.0687C0.94043 26.5681 7.36134 19.6729 15.2773 19.6729C23.1933 19.6729 29.6142 26.5681 29.6142 35.0687C29.6142 43.5705 23.1933 50.4652 15.2773 50.4652Z" fill="#F1BF40"/>
    <path fill-rule="evenodd" clip-rule="evenodd" d="M1.9248 27L15.2107 5L28.9248 27H1.9248Z" fill="#0A090B"/>
    <path fill-rule="evenodd" clip-rule="evenodd" d="M20.9248 12V4.88645C20.9248 2.73956 18.5813 1 15.4248 1C12.2683 1 9.9248 2.73956 9.9248 4.88645V12H20.9248Z" fill="#474647"/>
</svg>
