<svg width="24" height="16" viewBox="0 0 24 16" fill="none" xmlns="http://www.w3.org/2000/svg">
    <path d="M11.9409 0C11.9409 0 4.47221 6.62936e-06 2.59768 0.466031C1.594 0.734343 0.767537 1.52507 0.487095 2.49948C1.10977e-05 4.29295 0 8.00707 0 8.00707C0 8.00707 1.10977e-05 11.7353 0.487095 13.5005C0.767537 14.4749 1.57924 15.2515 2.59768 15.5199C4.48697 16 11.9409 16 11.9409 16C11.9409 16 19.4243 16 21.2988 15.534C22.3173 15.2657 23.1289 14.5032 23.3946 13.5147C23.8965 11.7353 23.8965 8.0212 23.8965 8.0212C23.8965 8.0212 23.9112 4.29295 23.3946 2.49948C23.1289 1.52507 22.3173 0.748483 21.2988 0.494288C19.4243 2.25829e-05 11.9409 0 11.9409 0V0ZM9.56445 4.57553L15.7785 8.00707L9.56445 11.4245V4.57553V4.57553Z" fill="#232323"/>
</svg>

