<svg width="72" height="75" viewBox="0 0 72 75" fill="none" xmlns="http://www.w3.org/2000/svg">
    <path opacity="0.235561" d="M39.2722 63.1481C57.347 63.1481 71.9996 49.0119 71.9996 31.5741C71.9996 14.1362 57.347 0 39.2722 0C21.1974 0 6.54492 14.1362 6.54492 31.5741C6.54492 49.0119 21.1974 63.1481 39.2722 63.1481Z" fill="#F1BF40"/>
    <path fill-rule="evenodd" clip-rule="evenodd" d="M33.4762 24.2762C40.3352 26.0543 46.0679 30.3103 49.6184 36.2602C52.8375 41.6546 53.9245 47.9874 52.6795 54.0915C51.4461 60.1372 48.0214 65.5515 43.0365 69.3369C42.585 69.6797 41.9323 69.6035 41.5782 69.1668C41.2239 68.7302 41.3027 68.0986 41.754 67.756C48.6587 62.5127 51.9253 54.1747 50.8858 46.1144C50.7458 46.6921 50.4527 47.2133 50.0271 47.6252L49.3549 48.2755C49.1582 48.4661 48.893 48.5699 48.6206 48.5699C48.5457 48.5699 48.4704 48.562 48.3956 48.5461C48.0493 48.4717 47.7659 48.2313 47.6446 47.9085L46.2325 44.1517C46.2107 44.0937 46.1788 44.0408 46.1375 43.9941L44.8579 42.5446C44.7572 42.4305 44.6104 42.365 44.4553 42.365H43.9594L44.0146 42.4453C44.2894 42.844 44.2349 43.3745 43.8849 43.7133C42.5146 45.0388 40.8293 46.0825 39.0111 46.7313L38.2284 47.0105C37.7387 47.1857 37.1901 46.9809 36.9484 46.5327L34.2605 41.5514C34.183 41.4078 34.1425 41.2482 34.1425 41.0863V40.382L32.6923 39.0427L31.1629 38.5226C30.6217 38.3386 30.3372 37.7651 30.5274 37.2414C30.7175 36.7179 31.3102 36.4423 31.8516 36.6266L33.592 37.2183C33.7311 37.2656 33.8582 37.341 33.9649 37.4395L35.8982 39.2252C36.1036 39.4147 36.2197 39.6775 36.2197 39.952V40.8397L38.3667 44.8187C39.6132 44.3642 40.7838 43.6904 41.7959 42.8483L41.6374 42.6181C41.329 42.1707 41.3004 41.598 41.5626 41.1239C41.8249 40.6499 42.333 40.3552 42.8891 40.3552H44.4553C45.2189 40.3552 45.9412 40.6773 46.4373 41.2392L47.7169 42.6886C47.9203 42.9189 48.0777 43.1801 48.1846 43.4649L48.9019 45.3735C48.9023 45.3655 48.9025 45.3574 48.9026 45.3493C48.9154 44.6045 49.2522 43.8929 49.8269 43.3967L50.2672 43.0169C49.7278 41.0378 48.9165 39.1028 47.8197 37.2648C43.7021 30.3645 36.5163 26.2235 28.8824 25.5209L25.8948 29.1467C25.7729 29.2946 25.6105 29.4061 25.4262 29.4686L18.7054 31.7483L17.1812 35.3228L18.7305 37.4225C19.58 36.0959 21.0958 35.253 22.7511 35.253H23.3416C23.9151 35.253 24.3802 35.703 24.3802 36.2579C24.3802 36.8127 23.9151 37.2627 23.3416 37.2627H22.7511C21.6362 37.2627 20.634 37.9449 20.2574 38.9602L20.2318 39.0292C20.728 38.9753 21.2295 38.9578 21.6832 38.9422C21.9721 38.9324 22.2451 38.923 22.461 38.9055C22.841 38.8743 24.767 38.7813 25.3473 39.9688C25.4501 40.1792 25.5482 40.5162 25.4398 40.9361L25.4599 40.949C25.7816 41.1566 26.3045 41.4937 26.6848 41.6703C26.7974 41.4046 26.9897 41.2393 27.0546 41.1889C27.3003 40.9984 27.6313 40.8658 28.1617 40.7455C28.3597 40.7005 28.5672 40.7129 28.7585 40.7812C28.9867 40.8627 29.3327 40.9534 29.6992 41.0493L29.7 41.0495C30.7897 41.3351 32.0246 41.6587 32.6798 42.3304C33.4088 43.0779 33.837 44.1503 34.2148 45.0964L34.215 45.0969C34.3578 45.4545 34.4928 45.7923 34.6278 46.0714C34.702 46.2248 34.7752 46.3827 34.8494 46.5427L34.8495 46.5429L34.8539 46.5524L34.854 46.5525C35.2342 47.3731 35.6274 48.2214 36.27 48.6279C36.4155 48.7199 36.8722 48.7878 37.1752 48.8328H37.1753L37.1766 48.833C37.9438 48.9467 38.8987 49.0884 39.2744 49.9316C39.6576 50.7915 39.0384 51.659 38.8347 51.9443V51.9444C38.3694 52.596 37.7676 53.1383 37.1855 53.6627C35.8427 54.8726 35.2873 55.5066 35.6048 56.4978C35.9822 57.6758 36.3385 58.7884 34.955 60.2449C34.8732 60.3309 34.7971 60.4095 34.7257 60.4829L34.7247 60.4839C34.3151 60.906 34.1912 61.0337 34.0208 61.553C33.7964 62.237 33.45 62.6145 33.1716 62.9178L33.1712 62.9182L33.1708 62.9186C33.0325 63.0694 32.9233 63.1885 32.8305 63.3421C32.77 63.4423 32.7383 63.5955 32.698 63.7895L32.6977 63.7911C32.6167 64.1827 32.5056 64.7189 32.0548 65.2543C31.3371 66.107 29.7746 67.4521 28.2773 67.4522C27.9697 67.4523 27.6651 67.3955 27.3709 67.2661C26.809 67.0188 26.1089 66.4048 25.175 63.7237C25.0591 63.3905 24.8823 63.0137 24.6949 62.6144L24.6948 62.6142H24.6947L24.6943 62.6133C24.1168 61.3826 23.4622 59.9875 23.9318 58.581C23.9589 58.4994 23.9859 58.4198 24.0124 58.3419C24.3215 57.4304 24.4626 57.0144 24.1386 56.2633C24.0876 56.145 23.922 55.9687 23.762 55.7984L23.7619 55.7983C23.4399 55.4554 23.0391 55.0286 22.8841 54.4111C22.7873 54.0251 22.7894 53.6871 22.7914 53.4153C22.7942 52.9883 22.7814 52.9645 22.6425 52.8386C22.3568 52.5799 22.0747 52.6012 21.1842 52.8144C20.8613 52.8917 20.5275 52.9716 20.1696 53.0122C17.9725 53.2623 15.914 52.4078 14.6654 50.727C13.3741 48.9887 13.1772 46.669 14.1517 44.6732C14.595 43.766 15.2188 43.0867 15.8222 42.43C15.9375 42.3045 16.0538 42.1779 16.1701 42.0483C16.3037 41.8994 16.497 41.634 16.7017 41.3528L16.702 41.3524C17.1691 40.7111 17.5602 40.1945 17.9619 39.8399L15.1566 36.0379C14.9487 35.7561 14.9054 35.3909 15.0418 35.0708L16.9626 30.5657C17.0754 30.301 17.2998 30.0954 17.5791 30.0007L24.4569 27.6679L26.3116 25.4169C22.2358 25.456 18.1167 26.4777 14.3422 28.5862C13.3135 29.1607 12.3455 29.7982 11.4377 30.4888C12.2759 30.9942 12.9461 31.7441 13.3298 32.6448C13.9803 34.172 13.6479 35.939 12.4832 37.1467L11.3434 38.3284L8.51571 43.1045C8.44144 43.2299 8.34006 43.3383 8.21853 43.4225L6.39435 44.6845L7.66791 46.4918C7.86745 46.775 7.90412 47.1369 7.76514 47.4521C7.62616 47.7671 7.33085 47.9922 6.98154 48.0488C6.97292 48.0502 6.10123 48.1914 5.22498 48.3167C4.30104 48.4488 3.74149 48.5216 3.36351 48.5217C2.95218 48.5217 2.75628 48.4353 2.54002 48.2448C2.46482 48.1785 2.40062 48.1019 2.34879 48.0184C2.30693 47.9764 2.2389 47.9123 2.1344 47.8182C2.08101 48.7295 2.08184 49.6456 2.13804 50.562L4.78633 49.7297C5.1102 49.628 5.46492 49.6862 5.73592 49.8856L10.2593 53.213L12.6037 53.6562C13.5126 53.8282 14.3026 54.3701 14.7711 55.1431C15.2397 55.9161 15.3428 56.8476 15.0542 57.699C14.9774 57.9255 14.977 58.1652 15.0531 58.3919L15.3822 59.3717C15.9325 61.0112 15.0018 62.7783 13.3074 63.3109L12.859 63.4518L11.9284 68.1515C18.4829 72.9116 27.2561 74.2809 35.3601 71.2673C35.8953 71.0678 36.4963 71.3266 36.7022 71.8447C36.9081 72.3627 36.6409 72.9441 36.1055 73.1432C33.0609 74.2753 29.84 74.8427 26.6132 74.8427C23.6455 74.8427 20.6733 74.363 17.8261 73.4019C11.8196 71.374 6.7578 67.3179 3.57301 61.9808C0.0226042 56.031 -0.920543 49.0995 0.917244 42.4634C2.75503 35.8273 7.15396 30.2807 13.3035 26.8457C19.4532 23.4106 26.6174 22.498 33.4762 24.2762ZM9.19425 54.9532L4.91134 51.8026L2.35466 52.6062C2.79196 55.476 3.78413 58.3141 5.37211 60.975C6.67372 63.1563 8.27727 65.0677 10.1036 66.685L10.9344 62.4894C11.0055 62.1298 11.2733 61.8359 11.6334 61.7228L12.6656 61.3983C13.2707 61.208 13.6033 60.5768 13.4066 59.9913L13.0776 59.0117C12.8643 58.3768 12.8654 57.7058 13.0804 57.0714C13.1849 56.7628 13.1491 56.4387 12.9793 56.1586C12.8095 55.8784 12.5346 55.6899 12.2051 55.6276L9.62375 55.1395C9.46774 55.1101 9.32086 55.0464 9.19425 54.9532ZM10.9645 35.7747L9.74271 37.0413C9.68817 37.0979 9.6405 37.1604 9.60071 37.2275L6.82612 41.9143L4.36012 43.6203C3.9008 43.9381 3.788 44.5524 4.10605 45.0038L5.02832 46.3127C4.49671 46.3893 4.01963 46.4524 3.70241 46.4859C3.64144 46.4293 3.57766 46.3719 3.5117 46.3126C3.2648 46.0907 2.92171 45.7943 2.41025 45.3613C3.25379 40.3101 5.76954 35.5513 9.72619 31.9189C10.4838 32.1497 11.1056 32.6965 11.4093 33.4098C11.751 34.2119 11.5763 35.1403 10.9645 35.7747ZM21.7568 40.9507C20.9717 40.9776 19.8965 41.0145 19.4332 41.2667C19.2059 41.4035 18.6823 42.1225 18.4009 42.509L18.4005 42.5096C18.1648 42.8335 17.9419 43.1394 17.7393 43.3653C17.6225 43.4954 17.5057 43.6226 17.39 43.7487L17.3753 43.7648C16.8231 44.3657 16.3462 44.885 16.0305 45.5313C15.3784 46.8669 15.5019 48.4082 16.3527 49.5536C17.1661 50.6486 18.4688 51.1812 19.928 51.0158C20.1546 50.99 20.4102 50.9289 20.6807 50.8643L20.6859 50.863C21.573 50.6508 22.9133 50.3301 24.0628 51.371C24.878 52.1096 24.8727 52.903 24.8691 53.4281V53.4282C24.8678 53.6229 24.8666 53.791 24.9032 53.9366C24.9332 54.056 25.128 54.2634 25.2999 54.4464L25.3012 54.4478C25.5665 54.7305 25.8671 55.0508 26.056 55.489C26.6776 56.9301 26.3421 57.9199 25.9867 58.9681C25.9611 59.0431 25.9351 59.1199 25.9089 59.1985C25.6864 59.8647 26.1437 60.8395 26.5861 61.7822L26.5863 61.7826C26.7869 62.2101 26.9944 62.6521 27.1439 63.0817C27.7505 64.8236 28.152 65.327 28.2628 65.442C28.3599 65.4476 28.6449 65.4066 29.1331 65.1067C29.6584 64.7838 30.1701 64.3107 30.4444 63.9849C30.5649 63.8417 30.5998 63.6927 30.6614 63.3957C30.7238 63.094 30.8017 62.7183 31.0373 62.3282C31.2339 62.0026 31.4471 61.7703 31.6183 61.5838V61.5837C31.8324 61.3505 31.9503 61.2221 32.0413 60.9448C32.3546 59.9902 32.7329 59.6004 33.212 59.107C33.2786 59.0384 33.3497 58.9653 33.4259 58.885C33.9852 58.2962 33.969 58.1789 33.6212 57.0927C32.8842 54.7924 34.4844 53.3505 35.7703 52.192L35.7712 52.1912C36.2756 51.7367 36.7529 51.3066 37.0882 50.8541C37.0086 50.8414 36.9303 50.8298 36.8619 50.8196L36.8611 50.8195C36.2961 50.7356 35.6558 50.6406 35.1335 50.3102C33.9811 49.5814 33.4378 48.409 32.9586 47.3747L32.9426 47.3402C32.877 47.1989 32.8123 47.0593 32.7466 46.9235C32.5811 46.5813 32.4336 46.2122 32.2775 45.8212L32.2771 45.8201C31.9681 45.0466 31.6181 44.1702 31.1691 43.7097C30.9162 43.4504 29.7714 43.1505 29.1564 42.9894L29.1428 42.9859C28.9687 42.9402 28.7988 42.8956 28.6369 42.8508C28.5634 42.9854 28.4645 43.097 28.359 43.1802C28.3482 43.1898 28.3378 43.2001 28.3273 43.2106C28.3232 43.2147 28.3191 43.2188 28.3149 43.2229L28.3132 43.2246C28.1249 43.4101 27.6878 43.8408 26.9041 43.7916C26.0396 43.7383 25.1194 43.1449 24.3077 42.6213H24.3076C24.0205 42.4361 23.7494 42.2611 23.5545 42.1602C23.267 42.0114 23.0683 41.7406 23.0183 41.4287C22.9899 41.2514 23.0112 41.0728 23.0767 40.91C22.93 40.8989 22.7744 40.8968 22.6342 40.9081C22.3687 40.9296 22.0715 40.9399 21.7568 40.9507Z" fill="#393939"/>
    <path fill-rule="evenodd" clip-rule="evenodd" d="M42.8044 56.1299L43.3274 58.0289C43.3787 58.2148 43.3757 58.4109 43.3188 58.5955L42.0401 62.7466C41.3589 64.9579 40.5253 66.069 39.4164 66.2435C39.3265 66.2577 39.2293 66.2664 39.1265 66.266C38.6002 66.266 37.9229 66.0389 37.2788 65.1555C36.376 63.9176 37.0198 62.4615 37.3659 61.6794L37.3767 61.655C37.4636 61.4585 37.4525 61.3502 37.4046 61.0378C37.3491 60.6776 37.2732 60.1842 37.4765 59.5605C37.804 58.555 38.6612 58.1565 39.2871 57.8656C39.5489 57.7439 39.8198 57.6179 39.9253 57.5011C40.113 57.293 40.2935 56.916 40.468 56.5515C40.5717 56.3348 40.679 56.1107 40.7981 55.8992C41.0107 55.5221 41.44 55.3089 41.8827 55.3587C42.3249 55.4096 42.6901 55.7152 42.8044 56.1299ZM39.1242 64.0389C39.3015 63.8056 39.6088 63.2793 39.956 62.1519L40.7787 59.4811C40.5911 59.5857 40.4052 59.6721 40.2361 59.7508L40.2321 59.7527C39.8484 59.9311 39.5937 60.0578 39.551 60.1884C39.4992 60.3473 39.514 60.4629 39.5554 60.7319L39.5555 60.7328C39.62 61.1529 39.7082 61.7279 39.3771 62.4765L39.3661 62.501L39.366 62.5012C39.1606 62.9658 38.8502 63.6677 39.0579 63.9527C39.0816 63.9853 39.1038 64.0138 39.1242 64.0389Z" fill="#393939"/>
</svg>
