<svg width="63" height="63" viewBox="0 0 63 63" fill="none" xmlns="http://www.w3.org/2000/svg">
    <path d="M30.6166 61.5048L39.2352 50.779C39.2406 50.7722 39.2461 50.7657 39.2521 50.7595L47.1342 42.3143C47.2833 42.1546 47.5407 42.1699 47.6699 42.3461L61.7287 61.5171C61.8975 61.7472 61.7331 62.0717 61.4476 62.0717H30.8881C30.5956 62.0716 30.4333 61.7328 30.6166 61.5048Z" fill="#6F934F"/>
    <path d="M36.8652 53.7299L44.2498 57.7197L47.4633 42.2124C47.4362 42.2067 47.4085 42.2046 47.3808 42.2052C47.3775 42.2053 47.3743 42.2054 47.371 42.2056C47.3472 42.2068 47.3236 42.2108 47.3005 42.2169C47.2949 42.2183 47.2892 42.2197 47.2836 42.2214C47.2627 42.2281 47.2425 42.2374 47.2228 42.2482C47.2168 42.2516 47.2105 42.2539 47.2047 42.2577C47.1805 42.273 47.1575 42.2911 47.1368 42.313V42.3131L42.9492 46.7998L39.2539 50.7589C39.2482 50.7652 39.2424 50.7716 39.2371 50.7783L36.8652 53.7299Z" fill="#526D3E"/>
    <path d="M1.23153 61.5383L23.2659 29.1347C23.399 28.9388 23.6865 28.935 23.8248 29.1272L47.1553 61.5308C47.3178 61.7564 47.1566 62.0712 46.8785 62.0712H1.51356C1.23966 62.0714 1.07748 61.7649 1.23153 61.5383Z" fill="#6F934F"/>
    <path d="M23.2658 29.1349L20.4278 33.3085L20.427 33.3098L1.35906 61.3509L1.23146 61.5384C1.07753 61.765 1.2397 62.0715 1.51361 62.0715H15.6361L23.5759 28.989C23.4594 28.9795 23.3393 29.0269 23.2658 29.1349Z" fill="#526D3E"/>
    <path d="M23.4766 16.6434V1.26143C23.4766 1.07748 23.6258 0.928223 23.8098 0.928223H46.9848C47.2324 0.928223 47.3936 1.18884 47.2828 1.41032L43.5862 8.80335C43.5392 8.89711 43.5392 9.0076 43.5862 9.10137L47.2828 16.4944C47.3936 16.7159 47.2325 16.9765 46.9848 16.9765H23.8097C23.6257 16.9766 23.4766 16.8274 23.4766 16.6434Z" fill="#CD5838"/>
    <path d="M30.0235 0.928223H23.8098C23.6258 0.928223 23.4766 1.07748 23.4766 1.26143V16.6434C23.4766 16.8274 23.6258 16.9766 23.8098 16.9766H30.0235C30.2438 16.9766 30.4223 16.7981 30.4223 16.5778V1.32702C30.4223 1.10676 30.2438 0.928223 30.0235 0.928223Z" fill="#B72C11"/>
    <path fill-rule="evenodd" clip-rule="evenodd" d="M62.8073 61.4168L48.2179 41.5222C48.2138 41.5166 48.2091 41.5118 48.2048 41.5064C48.1904 41.4876 48.1754 41.4693 48.1598 41.4515L48.1503 41.441C48.145 41.4352 48.1397 41.4294 48.1342 41.4237C48.1192 41.4081 48.1037 41.3931 48.0877 41.3784L48.0815 41.3728C48.0736 41.3655 48.0656 41.3582 48.0574 41.3513C48.0412 41.3376 48.0246 41.325 48.0077 41.3124L47.9988 41.3056C47.9911 41.2998 47.9834 41.2939 47.9754 41.2885C47.9555 41.2751 47.9351 41.2629 47.9144 41.2509L47.9045 41.2448L47.8936 41.2381L47.8882 41.2351C47.8582 41.2189 47.8274 41.2043 47.7961 41.1912C47.7918 41.1894 47.7875 41.1879 47.7831 41.1864L47.7758 41.1839C47.7502 41.1739 47.7243 41.1647 47.6979 41.1568C47.688 41.1539 47.678 41.1518 47.668 41.1491C47.6441 41.1428 47.6202 41.137 47.5959 41.1325C47.5847 41.1305 47.5736 41.129 47.5623 41.1273L47.5365 41.1238L47.5266 41.1226C47.5148 41.1212 47.503 41.12 47.4912 41.1191L47.4855 41.1185L47.4828 41.1181C47.48 41.1177 47.4772 41.1173 47.4744 41.1171C47.4679 41.1167 47.4614 41.1173 47.455 41.1171C47.4316 41.1161 47.4082 41.1161 47.3845 41.117C47.3723 41.1173 47.3601 41.1177 47.3479 41.1187C47.3254 41.1203 47.3027 41.123 47.2799 41.126C47.267 41.1277 47.2542 41.1294 47.2413 41.1316C47.2358 41.1326 47.2304 41.1331 47.2249 41.1339L47.2205 41.1347C47.211 41.1366 47.2018 41.1391 47.1927 41.1416C47.1867 41.1432 47.1807 41.1448 47.1747 41.1463L47.1616 41.1495L47.1614 41.1495L47.1613 41.1495C47.1537 41.1514 47.146 41.1532 47.1385 41.1554L47.1239 41.1598C47.1133 41.1631 47.1028 41.1666 47.0923 41.1703L47.067 41.1795L47.0561 41.1834C47.0509 41.1853 47.0457 41.1871 47.0406 41.1892C47.0112 41.2011 46.9826 41.2146 46.9549 41.2289C46.9522 41.2304 46.9494 41.2314 46.9467 41.2329C46.8836 41.2666 46.8249 41.3067 46.7713 41.3524C46.7657 41.3572 46.7605 41.3626 46.7549 41.3675C46.7346 41.3856 46.715 41.404 46.6964 41.4236L46.6926 41.4272L46.6883 41.4314L39.4288 49.2095L24.5369 28.5263V17.9053H47.4157C47.7606 17.9053 48.0808 17.7267 48.2619 17.4335C48.4431 17.1403 48.4597 16.7741 48.3055 16.4658L44.549 8.95277L48.3055 1.43977C48.4598 1.13142 48.4432 0.765229 48.2619 0.472008C48.0807 0.178787 47.7605 0 47.4157 0H23.5422C22.9927 0 22.5475 0.44543 22.5475 0.994711V28.541L0.172258 61.4457C-0.035076 61.7503 -0.0568553 62.1448 0.115656 62.4704C0.288045 62.796 0.626424 62.9998 0.994826 62.9998H34.1489L34.1523 63L34.1556 62.9998H51.3892L51.3936 62.9999L51.3975 62.9998H62.005C62.3798 62.9998 62.7229 62.789 62.8923 62.4547C63.0619 62.1202 63.029 61.7191 62.8073 61.4168ZM24.5369 1.98942H45.8063L42.5471 8.50771C42.4071 8.78764 42.4071 9.1174 42.5471 9.39734L45.8063 15.9156H24.5369V1.98942ZM31.899 51.6988L34.8787 61.0102H45.4737L26.4024 34.5226L30.3483 46.8533C30.5538 47.4952 30.0749 48.1512 29.4009 48.1512C28.9684 48.1512 28.5854 47.8716 28.4536 47.4597L23.2168 31.0946L2.87424 61.0102H32.7899L30.0044 52.3051C29.7989 51.6632 30.2778 51.0072 30.9517 51.0072C31.3842 51.0072 31.7673 51.2868 31.899 51.6988ZM47.9253 61.0102L40.614 50.8558L46.8203 44.2061L50.1812 61.0103H47.9253V61.0102ZM49.2733 46.3253L52.2103 61.0102H60.0421L49.2733 46.3253Z" fill="black"/>
</svg>
