<svg width="307" height="285" viewBox="0 0 307 285" fill="none" xmlns="http://www.w3.org/2000/svg">
    <g opacity="0.2">
        <path opacity="0.2" d="M251.048 247.232C231.705 256.252 210.518 258.746 189.789 254.434C154.81 247.165 119.766 251.176 88.355 265.823L54.359 281.675C39.2778 288.708 21.373 282.349 14.4493 267.501L2.7717 242.459C-4.152 227.611 2.48569 209.807 17.5674 202.775L51.563 186.922C82.636 172.433 108.835 147.453 125.346 116.588C135.512 97.581 151.347 82.767 171.141 73.753C194.228 63.23 220.115 62.084 244.042 70.508C267.961 78.935 287.134 95.961 298.01 118.441C309.244 141.628 310.526 167.861 301.625 192.25C292.728 216.646 274.763 236.174 251.048 247.232Z" fill="black"/>
        <path opacity="0.2" d="M191.545 243.258C209.113 246.914 228.071 244.805 244.47 237.158C264.574 227.783 279.807 211.225 287.348 190.534C294.891 169.85 293.785 147.635 284.268 127.931C265.269 88.657 217.009 71.649 176.702 90.015C159.918 97.658 146.495 110.218 137.873 126.339C120.956 157.984 94.272 183.737 62.57 199.072L88.256 254.156C120.682 239.571 155.691 235.801 191.545 243.258Z" fill="#F1BF40"/>
        <path opacity="0.2" d="M60.468 266.388L71.344 261.317L44.719 204.219L39.968 206.435L60.468 266.388Z" fill="black"/>
        <path opacity="0.2" d="M29.5759 274.889L12.0195 224.596C8.96679 229.325 8.47389 235.922 11.2698 241.918L23.0121 267.099C24.5523 270.402 26.8714 273.052 29.5759 274.889Z" fill="black"/>
        <path opacity="0.2" fill-rule="evenodd" clip-rule="evenodd" d="M236.128 215.036C234.192 215.938 232.202 216.763 230.218 217.491C227.421 218.509 224.417 217.32 223.254 214.827C223.185 214.678 223.122 214.525 223.063 214.362C222.074 211.559 223.667 208.408 226.628 207.328C228.29 206.719 229.957 206.029 231.576 205.274C260.07 191.988 273.042 159.287 260.494 132.379C259.238 129.685 260.534 126.418 263.387 125.088C266.239 123.758 269.574 124.865 270.831 127.559C285.888 159.849 270.32 199.092 236.128 215.036Z" fill="black"/>
        <path opacity="0.2" fill-rule="evenodd" clip-rule="evenodd" d="M232.748 41.4248C232.474 44.7829 229.554 47.2541 226.217 46.9424C223.977 46.7328 222.128 45.3215 221.233 43.4019C220.794 42.4607 220.582 41.3957 220.67 40.2896L223.432 6.1944C223.71 2.8255 226.63 0.354302 229.967 0.666002C233.304 0.977702 235.788 3.9607 235.51 7.3296L232.748 41.4248Z" fill="black"/>
        <path opacity="0.2" fill-rule="evenodd" clip-rule="evenodd" d="M118.022 98.241C116.116 100.998 112.346 101.646 109.59 99.701L81.696 79.9C80.792 79.257 80.113 78.41 79.67 77.462C78.775 75.542 78.883 73.218 80.162 71.367C82.068 68.611 85.838 67.963 88.59 69.919L116.484 89.719C119.24 91.664 119.928 95.484 118.022 98.241Z" fill="black"/>
        <path opacity="0.2" fill-rule="evenodd" clip-rule="evenodd" d="M169.721 56.553C171.317 59.976 170.583 63.701 168.081 64.868C165.58 66.034 162.254 64.203 160.658 60.78L144.465 26.0537C142.865 22.6225 143.604 18.906 146.105 17.7396C148.607 16.5731 151.928 18.3963 153.528 21.8275L169.721 56.553Z" fill="black"/>
    </g>
</svg>
