<svg width="82" height="80" viewBox="0 0 82 80" fill="none" xmlns="http://www.w3.org/2000/svg">
    <path opacity="0.235561" d="M41.2725 78.5847C63.7657 78.5847 82 60.9929 82 39.2924C82 17.5918 63.7657 0 41.2725 0C18.7793 0 0.544922 17.5918 0.544922 39.2924C0.544922 60.9929 18.7793 78.5847 41.2725 78.5847Z" fill="#F1BF40"/>
    <path d="M45.8912 38.2576H16.1305C15.584 38.2576 15.0747 38.5342 14.777 38.9924L8.0108 49.4102C7.6147 50.0201 7.67537 50.8196 8.15914 51.3627L29.7941 75.6518C30.4359 76.3723 31.5624 76.3724 32.2042 75.6518L53.8415 51.3614C54.3247 50.8189 54.386 50.0205 53.9911 49.4107L47.2459 38.9942C46.9485 38.5349 46.4386 38.2576 45.8912 38.2576Z" fill="#67E5DD"/>
    <path d="M47.246 38.9942C46.9486 38.5349 46.4385 38.2576 45.8913 38.2576H16.1306C15.5841 38.2576 15.0748 38.5342 14.7771 38.9924L8.01088 49.4102C7.80151 49.7326 7.7211 50.1077 7.76191 50.4701H54.2388C54.2799 50.1081 54.1999 49.733 53.9911 49.4107L47.246 38.9942Z" fill="#96EDE7"/>
    <path d="M38.8525 50.47L30.9991 75.9611L23.1458 50.47H38.8525Z" fill="#C0F4F1"/>
    <path d="M23.1458 50.4701L30.9991 38.3334L38.8525 50.4701H23.1458Z" fill="#67E5DD"/>
    <path d="M7.1222 50.4701L14.9755 38.3334L22.8289 50.4701H7.1222Z" fill="#C0F4F1"/>
    <path d="M38.6471 50.4701L46.5005 38.3334L54.3539 50.4701H38.6471Z" fill="#C0F4F1"/>
    <path d="M48.2619 38.3361C47.7391 37.5287 46.8527 37.0466 45.8909 37.0466H16.13C15.1696 37.0466 14.2841 37.5275 13.7611 38.3328L6.99484 48.7505C6.3034 49.8149 6.4102 51.2203 7.25459 52.168L28.8894 76.457C29.4249 77.0581 30.1936 77.403 30.9986 77.403C30.9988 77.403 30.9986 77.403 30.9988 77.403C31.8037 77.403 32.5726 77.0582 33.1081 76.4571L54.7454 52.1667C55.5885 51.2202 55.6962 49.8162 55.0072 48.7524L48.2619 38.3361ZM37.2118 51.6811L30.9986 71.8484L24.7854 51.6811H37.2118ZM25.3712 49.2592L30.9986 40.5624L36.6261 49.2592H25.3712ZM33.1756 39.4685H44.5245L38.8517 48.2406L33.1756 39.4685ZM23.1612 48.2166L17.5026 39.4686H28.8217L23.1612 48.2166ZM28.6954 72.5983L10.0638 51.6811H22.2513L28.6954 72.5983ZM39.7461 51.6811H51.9347L33.3017 72.5988L39.7461 51.6811ZM52.4499 49.2592H41.0773L46.7598 40.472L52.4499 49.2592ZM15.2635 40.466L20.9513 49.2592H9.55234L15.2635 40.466Z" fill="black"/>
    <path d="M3.67314 49.2591H1.21094C0.542258 49.2591 0 49.8012 0 50.47C0 51.1389 0.542258 51.681 1.21094 51.681H3.67314C4.34182 51.681 4.88407 51.1389 4.88407 50.47C4.88407 49.8012 4.34182 49.2591 3.67314 49.2591Z" fill="black"/>
    <path d="M60.7888 49.2591H58.3266C57.658 49.2591 57.1157 49.8012 57.1157 50.47C57.1157 51.1389 57.658 51.681 58.3266 51.681H60.7888C61.4575 51.681 61.9998 51.1389 61.9998 50.47C61.9998 49.8012 61.4575 49.2591 60.7888 49.2591Z" fill="black"/>
    <path d="M48.0568 34.6455C48.3668 34.6455 48.6766 34.5272 48.9131 34.2909L52.9354 30.2685C53.4083 29.7956 53.4083 29.0289 52.9354 28.556C52.4624 28.0831 51.6959 28.0831 51.2228 28.556L47.2004 32.5784C46.7276 33.0512 46.7276 33.818 47.2004 34.2909C47.437 34.5274 47.7469 34.6455 48.0568 34.6455Z" fill="black"/>
    <path d="M13.1393 34.2693C13.3758 34.5058 13.6856 34.6239 13.9955 34.6239C14.3054 34.6239 14.6153 34.5056 14.8518 34.2693C15.3246 33.7964 15.3246 33.0296 14.8518 32.5567L10.8295 28.5344C10.3568 28.0615 9.59024 28.0615 9.11689 28.5344C8.64402 29.0072 8.64402 29.774 9.11689 30.2469L13.1393 34.2693Z" fill="black"/>
    <path d="M31.031 29.7834C31.6997 29.7834 32.2419 29.2412 32.2419 28.5724V20.681C32.2419 20.0122 31.6997 19.47 31.031 19.47C30.3623 19.47 29.8201 20.0122 29.8201 20.681V28.5724C29.8201 29.2412 30.3622 29.7834 31.031 29.7834Z" fill="black"/>
    <path d="M31.03 33.8798C31.3485 33.8798 31.6609 33.7514 31.886 33.525C32.1125 33.2997 32.2409 32.9873 32.2409 32.6688C32.2409 32.3504 32.1125 32.0379 31.886 31.8127C31.6609 31.5875 31.3485 31.4579 31.03 31.4579C30.7115 31.4579 30.3991 31.5875 30.1739 31.8127C29.9486 32.0379 29.8191 32.3504 29.8191 32.6688C29.8191 32.9885 29.9485 33.2997 30.1739 33.525C30.3991 33.7514 30.7115 33.8798 31.03 33.8798Z" fill="black"/>
</svg>
