<svg width="72" height="82" viewBox="0 0 72 82" fill="none" xmlns="http://www.w3.org/2000/svg">
    <path fill-rule="evenodd" clip-rule="evenodd" d="M42.9248 2.5C42.9248 3.8803 39.5672 5 35.4251 5C31.2834 5 27.9248 3.8803 27.9248 2.5C27.9248 1.11913 31.2834 0 35.4251 0C39.5672 0 42.9248 1.11913 42.9248 2.5Z" fill="#0A090B"/>
    <path fill-rule="evenodd" clip-rule="evenodd" d="M35.2778 36.5675C29.1469 36.5675 24.1602 32.324 24.1602 27.1065C24.1602 21.8893 29.1469 17.6455 35.2778 17.6455C41.4087 17.6455 46.3955 21.8893 46.3955 27.1065C46.3955 32.324 41.4087 36.5675 35.2778 36.5675Z" fill="#F5E5A8"/>
    <path fill-rule="evenodd" clip-rule="evenodd" d="M35.2776 36.5675C29.1467 36.5675 24.1602 32.3239 24.1602 27.1064C24.1602 21.8891 29.1467 17.6455 35.2776 17.6455C41.4085 17.6455 46.3955 21.8891 46.3955 27.1064C46.3955 32.3239 41.4085 36.5675 35.2776 36.5675Z" fill="#F5E5A9"/>
    <path fill-rule="evenodd" clip-rule="evenodd" d="M35.2778 36.5675C29.1469 36.5675 24.1602 32.324 24.1602 27.1066C24.1602 21.889 29.1469 17.6455 35.2778 17.6455C41.4087 17.6455 46.3955 21.889 46.3955 27.1066C46.3955 32.324 41.4087 36.5675 35.2778 36.5675Z" fill="#F5E5A9"/>
    <path fill-rule="evenodd" clip-rule="evenodd" d="M35.2778 36.5675C29.147 36.5675 24.1602 32.3241 24.1602 27.1066C24.1602 21.8889 29.147 17.6455 35.2778 17.6455C41.4086 17.6455 46.3955 21.8889 46.3955 27.1066C46.3955 32.3241 41.4086 36.5675 35.2778 36.5675Z" fill="#F5E5A9"/>
    <path fill-rule="evenodd" clip-rule="evenodd" d="M35.2778 35.8917C29.147 35.8917 24.1602 31.7998 24.1602 26.7685C24.1602 21.7374 29.147 17.6455 35.2778 17.6455C41.4087 17.6455 46.3955 21.7374 46.3955 26.7685C46.3955 31.7998 41.4087 35.8917 35.2778 35.8917Z" fill="#F6E5AA"/>
    <path fill-rule="evenodd" clip-rule="evenodd" d="M35.6147 35.8917C29.6698 35.8917 24.834 31.7996 24.834 26.7685C24.834 21.7374 29.6698 17.6455 35.6147 17.6455C41.5597 17.6455 46.3955 21.7374 46.3955 26.7685C46.3955 31.7996 41.5597 35.8917 35.6147 35.8917Z" fill="#F6E5AA"/>
    <path fill-rule="evenodd" clip-rule="evenodd" d="M35.6147 35.8917C29.6697 35.8917 24.834 31.7999 24.834 26.7687C24.834 21.7373 29.6697 17.6455 35.6147 17.6455C41.5598 17.6455 46.3955 21.7373 46.3955 26.7687C46.3955 31.7999 41.5598 35.8917 35.6147 35.8917Z" fill="#F6E5AA"/>
    <path fill-rule="evenodd" clip-rule="evenodd" d="M35.6147 35.8917C29.6692 35.8917 24.834 31.7998 24.834 26.7686C24.834 21.7374 29.6692 17.6455 35.6147 17.6455C41.5602 17.6455 46.3955 21.7374 46.3955 26.7686C46.3955 31.7998 41.5602 35.8917 35.6147 35.8917Z" fill="#F6E5AB"/>
    <path fill-rule="evenodd" clip-rule="evenodd" d="M35.6147 35.8917C29.6697 35.8917 24.834 31.7997 24.834 26.7687C24.834 21.7375 29.6697 17.6455 35.6147 17.6455C41.5597 17.6455 46.3955 21.7375 46.3955 26.7687C46.3955 31.7997 41.5597 35.8917 35.6147 35.8917Z" fill="#F6E5AB"/>
    <path fill-rule="evenodd" clip-rule="evenodd" d="M35.6147 35.8917C29.6693 35.8917 24.834 31.7998 24.834 26.7685C24.834 21.7374 29.6693 17.6455 35.6147 17.6455C41.5602 17.6455 46.3955 21.7374 46.3955 26.7685C46.3955 31.7998 41.5602 35.8917 35.6147 35.8917Z" fill="#F5E6AA"/>
    <path fill-rule="evenodd" clip-rule="evenodd" d="M35.6147 35.8917C29.6692 35.8917 24.834 31.7999 24.834 26.7685C24.834 21.7373 29.6692 17.6455 35.6147 17.6455C41.5603 17.6455 46.3955 21.7373 46.3955 26.7685C46.3955 31.7999 41.5603 35.8917 35.6147 35.8917Z" fill="#F6E6AB"/>
    <path fill-rule="evenodd" clip-rule="evenodd" d="M35.6147 35.8917C29.6693 35.8917 24.834 31.7998 24.834 26.7687C24.834 21.7374 29.6693 17.6455 35.6147 17.6455C41.5602 17.6455 46.3955 21.7374 46.3955 26.7687C46.3955 31.7998 41.5602 35.8917 35.6147 35.8917Z" fill="#F4E6AB"/>
    <path fill-rule="evenodd" clip-rule="evenodd" d="M35.6147 35.8917C29.6692 35.8917 24.834 31.7999 24.834 26.7687C24.834 21.7373 29.6692 17.6455 35.6147 17.6455C41.5602 17.6455 46.3955 21.7373 46.3955 26.7687C46.3955 31.7999 41.5602 35.8917 35.6147 35.8917Z" fill="#F4E6AC"/>
    <path fill-rule="evenodd" clip-rule="evenodd" d="M35.6148 34.5401C30.7813 34.5401 26.8555 31.0575 26.8555 26.7686C26.8555 22.4797 30.7813 18.9971 35.6148 18.9971C40.4484 18.9971 44.3742 22.4797 44.3742 26.7686C44.3742 31.0575 40.4484 34.5401 35.6148 34.5401Z" fill="#F7F2CE"/>
    <path fill-rule="evenodd" clip-rule="evenodd" d="M35.6148 34.5401C30.781 34.5401 26.8555 31.0576 26.8555 26.7686C26.8555 22.4796 30.781 18.9971 35.6148 18.9971C40.4487 18.9971 44.3742 22.4796 44.3742 26.7686C44.3742 31.0576 40.4487 34.5401 35.6148 34.5401Z" fill="#F7F2CE"/>
    <path fill-rule="evenodd" clip-rule="evenodd" d="M35.6148 34.5401C30.7809 34.5401 26.8555 31.0575 26.8555 26.7685C26.8555 22.4797 30.7809 18.9971 35.6148 18.9971C40.4488 18.9971 44.3742 22.4797 44.3742 26.7685C44.3742 31.0575 40.4488 34.5401 35.6148 34.5401Z" fill="#F7F2CE"/>
    <path fill-rule="evenodd" clip-rule="evenodd" d="M35.2779 34.5401C30.6295 34.5401 26.8555 31.2096 26.8555 27.1064C26.8555 23.0034 30.6295 19.6729 35.2779 19.6729C39.9263 19.6729 43.7004 23.0034 43.7004 27.1064C43.7004 31.2096 39.9263 34.5401 35.2779 34.5401Z" fill="#F7F4D5"/>
    <path fill-rule="evenodd" clip-rule="evenodd" d="M35.2779 34.5401C30.6294 34.5401 26.8555 31.2097 26.8555 27.1065C26.8555 23.0035 30.6294 19.6729 35.2779 19.6729C39.9264 19.6729 43.7004 23.0035 43.7004 27.1065C43.7004 31.2097 39.9264 34.5401 35.2779 34.5401Z" fill="#F7F4D5"/>
    <path fill-rule="evenodd" clip-rule="evenodd" d="M35.2779 34.5401C30.6291 34.5401 26.8555 31.2094 26.8555 27.1066C26.8555 23.0036 30.6291 19.6729 35.2779 19.6729C39.9267 19.6729 43.7004 23.0036 43.7004 27.1066C43.7004 31.2094 39.9267 34.5401 35.2779 34.5401Z" fill="#F7F4D6"/>
    <path fill-rule="evenodd" clip-rule="evenodd" d="M35.2779 34.5401C30.629 34.5401 26.8555 31.2097 26.8555 27.1066C26.8555 23.0035 30.629 19.6729 35.2779 19.6729C39.9268 19.6729 43.7004 23.0035 43.7004 27.1066C43.7004 31.2097 39.9268 34.5401 35.2779 34.5401Z" fill="#F7F4D6"/>
    <path fill-rule="evenodd" clip-rule="evenodd" d="M35.2779 34.5401C30.6295 34.5401 26.8555 31.2098 26.8555 27.1066C26.8555 23.0034 30.6295 19.6729 35.2779 19.6729C39.9263 19.6729 43.7004 23.0034 43.7004 27.1066C43.7004 31.2098 39.9263 34.5401 35.2779 34.5401Z" fill="#F7F4D6"/>
    <path fill-rule="evenodd" clip-rule="evenodd" d="M35.2779 34.5401C30.6291 34.5401 26.8555 31.2094 26.8555 27.1062C26.8555 23.0033 30.6291 19.6729 35.2779 19.6729C39.9268 19.6729 43.7004 23.0033 43.7004 27.1062C43.7004 31.2094 39.9268 34.5401 35.2779 34.5401Z" fill="#F7F4D7"/>
    <path fill-rule="evenodd" clip-rule="evenodd" d="M35.2779 34.5401C30.629 34.5401 26.8555 31.2096 26.8555 27.1066C26.8555 23.0034 30.629 19.6729 35.2779 19.6729C39.9269 19.6729 43.7004 23.0034 43.7004 27.1066C43.7004 31.2096 39.9269 34.5401 35.2779 34.5401Z" fill="#F7F7D8"/>
    <path fill-rule="evenodd" clip-rule="evenodd" d="M35.2779 34.5401C30.6291 34.5401 26.8555 31.2097 26.8555 27.1066C26.8555 23.0033 30.6291 19.6729 35.2779 19.6729C39.9268 19.6729 43.7004 23.0033 43.7004 27.1066C43.7004 31.2097 39.9268 34.5401 35.2779 34.5401Z" fill="#F7F7D8"/>
    <path fill-rule="evenodd" clip-rule="evenodd" d="M35.2779 34.5401C30.629 34.5401 26.8555 31.2098 26.8555 27.1066C26.8555 23.0032 30.629 19.6729 35.2779 19.6729C39.9269 19.6729 43.7004 23.0032 43.7004 27.1066C43.7004 31.2098 39.9269 34.5401 35.2779 34.5401Z" fill="#F7F7D9"/>
    <path fill-rule="evenodd" clip-rule="evenodd" d="M35.2779 34.5401C30.6291 34.5401 26.8555 31.2097 26.8555 27.1065C26.8555 23.003 30.6291 19.6729 35.2779 19.6729C39.9268 19.6729 43.7004 23.003 43.7004 27.1065C43.7004 31.2097 39.9268 34.5401 35.2779 34.5401Z" fill="#F7F7D9"/>
    <path fill-rule="evenodd" clip-rule="evenodd" d="M35.2779 34.5401C30.629 34.5401 26.8555 31.2098 26.8555 27.1066C26.8555 23.0031 30.629 19.6729 35.2779 19.6729C39.9269 19.6729 43.7004 23.0031 43.7004 27.1066C43.7004 31.2098 39.9269 34.5401 35.2779 34.5401Z" fill="#F7F7D9"/>
    <path fill-rule="evenodd" clip-rule="evenodd" d="M35.2779 34.5401C30.6291 34.5401 26.8555 31.2099 26.8555 27.1066C26.8555 23.003 30.6291 19.6729 35.2779 19.6729C39.9267 19.6729 43.7004 23.003 43.7004 27.1066C43.7004 31.2099 39.9267 34.5401 35.2779 34.5401Z" fill="#F7F7DA"/>
    <path fill-rule="evenodd" clip-rule="evenodd" d="M35.2779 34.5401C30.6286 34.5401 26.8555 31.2098 26.8555 27.1065C26.8555 23.0032 30.6286 19.6729 35.2779 19.6729C39.9272 19.6729 43.7004 23.0032 43.7004 27.1065C43.7004 31.2098 39.9272 34.5401 35.2779 34.5401Z" fill="#F7F7DA"/>
    <path fill-rule="evenodd" clip-rule="evenodd" d="M35.2779 33.8643C30.6287 33.8643 26.8555 30.6855 26.8555 26.7686C26.8555 22.8517 30.6287 19.6729 35.2779 19.6729C39.9271 19.6729 43.7004 22.8517 43.7004 26.7686C43.7004 30.6855 39.9271 33.8643 35.2779 33.8643Z" fill="#F7F7DA"/>
    <path fill-rule="evenodd" clip-rule="evenodd" d="M35.2779 33.8643C30.629 33.8643 26.8555 30.6857 26.8555 26.7687C26.8555 22.8518 30.629 19.6729 35.2779 19.6729C39.9268 19.6729 43.7004 22.8518 43.7004 26.7687C43.7004 30.6857 39.9268 33.8643 35.2779 33.8643Z" fill="#F8F7DB"/>
    <path fill-rule="evenodd" clip-rule="evenodd" d="M35.2779 33.8643C30.6285 33.8643 26.8555 30.6856 26.8555 26.7686C26.8555 22.8516 30.6285 19.6729 35.2779 19.6729C39.9273 19.6729 43.7004 22.8516 43.7004 26.7686C43.7004 30.6856 39.9273 33.8643 35.2779 33.8643Z" fill="#F8F7DB"/>
    <path fill-rule="evenodd" clip-rule="evenodd" d="M35.2779 33.8643C30.6287 33.8643 26.8555 30.6857 26.8555 26.7686C26.8555 22.8515 30.6287 19.6729 35.2779 19.6729C39.9272 19.6729 43.7004 22.8515 43.7004 26.7686C43.7004 30.6857 39.9272 33.8643 35.2779 33.8643Z" fill="#F8F7DB"/>
    <path fill-rule="evenodd" clip-rule="evenodd" d="M35.2779 33.8643C30.6285 33.8643 26.8555 30.6858 26.8555 26.7686C26.8555 22.8514 30.6285 19.6729 35.2779 19.6729C39.9273 19.6729 43.7004 22.8514 43.7004 26.7686C43.7004 30.6858 39.9273 33.8643 35.2779 33.8643Z" fill="#F8F7DC"/>
    <path fill-rule="evenodd" clip-rule="evenodd" d="M35.6149 33.8643C31.1514 33.8643 27.5293 30.6859 27.5293 26.7686C27.5293 22.8513 31.1514 19.6729 35.6149 19.6729C40.0784 19.6729 43.7004 22.8513 43.7004 26.7686C43.7004 30.6859 40.0784 33.8643 35.6149 33.8643Z" fill="#F8F7DC"/>
    <path fill-rule="evenodd" clip-rule="evenodd" d="M35.6149 33.8643C31.1515 33.8643 27.5293 30.6858 27.5293 26.7686C27.5293 22.8514 31.1515 19.6729 35.6149 19.6729C40.0782 19.6729 43.7004 22.8514 43.7004 26.7686C43.7004 30.6858 40.0782 33.8643 35.6149 33.8643Z" fill="#F8F6DD"/>
    <path fill-rule="evenodd" clip-rule="evenodd" d="M35.6149 33.8643C31.1514 33.8643 27.5293 30.6859 27.5293 26.7686C27.5293 22.8513 31.1514 19.6729 35.6149 19.6729C40.0783 19.6729 43.7004 22.8513 43.7004 26.7686C43.7004 30.6859 40.0783 33.8643 35.6149 33.8643Z" fill="#F8F6DD"/>
    <path fill-rule="evenodd" clip-rule="evenodd" d="M35.6149 33.8643C31.1515 33.8643 27.5293 30.6857 27.5293 26.7686C27.5293 22.8512 31.1515 19.6729 35.6149 19.6729C40.0782 19.6729 43.7004 22.8512 43.7004 26.7686C43.7004 30.6857 40.0782 33.8643 35.6149 33.8643Z" fill="#F8F6DD"/>
    <path fill-rule="evenodd" clip-rule="evenodd" d="M35.6149 33.8643C31.1514 33.8643 27.5293 30.686 27.5293 26.7686C27.5293 22.8515 31.1514 19.6729 35.6149 19.6729C40.0783 19.6729 43.7004 22.8515 43.7004 26.7686C43.7004 30.686 40.0783 33.8643 35.6149 33.8643Z" fill="#F8F8DE"/>
    <path fill-rule="evenodd" clip-rule="evenodd" d="M35.6149 33.8643C31.1511 33.8643 27.5293 30.6861 27.5293 26.7686C27.5293 22.8514 31.1511 19.6729 35.6149 19.6729C40.0786 19.6729 43.7004 22.8514 43.7004 26.7686C43.7004 30.6861 40.0786 33.8643 35.6149 33.8643Z" fill="#F8F8DE"/>
    <path fill-rule="evenodd" clip-rule="evenodd" d="M35.6149 33.8643C31.1514 33.8643 27.5293 30.6859 27.5293 26.7686C27.5293 22.851 31.1514 19.6729 35.6149 19.6729C40.0783 19.6729 43.7004 22.851 43.7004 26.7686C43.7004 30.6859 40.0783 33.8643 35.6149 33.8643Z" fill="#F8F8DE"/>
    <path fill-rule="evenodd" clip-rule="evenodd" d="M35.6149 33.8643C31.1511 33.8643 27.5293 30.686 27.5293 26.7686C27.5293 22.8512 31.1511 19.6729 35.6149 19.6729C40.0786 19.6729 43.7004 22.8512 43.7004 26.7686C43.7004 30.686 40.0786 33.8643 35.6149 33.8643Z" fill="#F8F8E0"/>
    <path fill-rule="evenodd" clip-rule="evenodd" d="M35.6149 33.8643C31.151 33.8643 27.5293 30.6861 27.5293 26.7685C27.5293 22.8511 31.151 19.6729 35.6149 19.6729C40.0787 19.6729 43.7004 22.8511 43.7004 26.7685C43.7004 30.6861 40.0787 33.8643 35.6149 33.8643Z" fill="#F8F8E0"/>
    <path fill-rule="evenodd" clip-rule="evenodd" d="M35.6149 33.8643C31.1509 33.8643 27.5293 30.686 27.5293 26.7686C27.5293 22.8512 31.1509 19.6729 35.6149 19.6729C40.0788 19.6729 43.7004 22.8512 43.7004 26.7686C43.7004 30.686 40.0788 33.8643 35.6149 33.8643Z" fill="#F8F8E0"/>
    <path fill-rule="evenodd" clip-rule="evenodd" d="M35.6149 33.8643C31.151 33.8643 27.5293 30.6859 27.5293 26.7685C27.5293 22.851 31.151 19.6729 35.6149 19.6729C40.0787 19.6729 43.7004 22.851 43.7004 26.7685C43.7004 30.6859 40.0787 33.8643 35.6149 33.8643Z" fill="#F8F9E1"/>
    <path fill-rule="evenodd" clip-rule="evenodd" d="M35.6149 33.8643C31.1509 33.8643 27.5293 30.686 27.5293 26.7685C27.5293 22.8509 31.1509 19.6729 35.6149 19.6729C40.0788 19.6729 43.7004 22.8509 43.7004 26.7685C43.7004 30.686 40.0788 33.8643 35.6149 33.8643Z" fill="#F8F9E1"/>
    <path fill-rule="evenodd" clip-rule="evenodd" d="M35.6149 33.8643C31.151 33.8643 27.5293 30.6862 27.5293 26.7686C27.5293 22.851 31.151 19.6729 35.6149 19.6729C40.0787 19.6729 43.7004 22.851 43.7004 26.7686C43.7004 30.6862 40.0787 33.8643 35.6149 33.8643Z" fill="#F8F9E1"/>
    <path fill-rule="evenodd" clip-rule="evenodd" d="M35.278 33.8643C31 33.8643 27.5293 30.6863 27.5293 26.7686C27.5293 22.8509 31 19.6729 35.278 19.6729C39.5559 19.6729 43.0266 22.8509 43.0266 26.7686C43.0266 30.6863 39.5559 33.8643 35.278 33.8643Z" fill="#F8F9E3"/>
    <path fill-rule="evenodd" clip-rule="evenodd" d="M35.278 33.8643C31.0002 33.8643 27.5293 30.6862 27.5293 26.7685C27.5293 22.851 31.0002 19.6729 35.278 19.6729C39.5558 19.6729 43.0266 22.851 43.0266 26.7685C43.0266 30.6862 39.5558 33.8643 35.278 33.8643Z" fill="#F8F9E3"/>
    <path fill-rule="evenodd" clip-rule="evenodd" d="M35.278 33.8643C30.9997 33.8643 27.5293 30.6863 27.5293 26.7685C27.5293 22.8509 30.9997 19.6729 35.278 19.6729C39.5562 19.6729 43.0266 22.8509 43.0266 26.7685C43.0266 30.6863 39.5562 33.8643 35.278 33.8643Z" fill="#F8F9E3"/>
    <path fill-rule="evenodd" clip-rule="evenodd" d="M35.278 33.8643C31 33.8643 27.5293 30.6864 27.5293 26.7685C27.5293 22.8508 31 19.6729 35.278 19.6729C39.556 19.6729 43.0266 22.8508 43.0266 26.7685C43.0266 30.6864 39.556 33.8643 35.278 33.8643Z" fill="#F9F9E4"/>
    <path fill-rule="evenodd" clip-rule="evenodd" d="M35.278 33.8643C31.0001 33.8643 27.5293 30.6863 27.5293 26.7687C27.5293 22.8509 31.0001 19.6729 35.278 19.6729C39.5559 19.6729 43.0266 22.8509 43.0266 26.7687C43.0266 30.6863 39.5559 33.8643 35.278 33.8643Z" fill="#F7F8E4"/>
    <path fill-rule="evenodd" clip-rule="evenodd" d="M35.278 33.8643C30.9996 33.8643 27.5293 30.6864 27.5293 26.7687C27.5293 22.8508 30.9996 19.6729 35.278 19.6729C39.5563 19.6729 43.0266 22.8508 43.0266 26.7687C43.0266 30.6864 39.5563 33.8643 35.278 33.8643Z" fill="#F7F8E5"/>
    <path fill-rule="evenodd" clip-rule="evenodd" d="M35.278 33.1886C30.9995 33.1886 27.5293 30.1621 27.5293 26.4306C27.5293 22.6993 30.9995 19.6729 35.278 19.6729C39.5564 19.6729 43.0266 22.6993 43.0266 26.4306C43.0266 30.1621 39.5564 33.1886 35.278 33.1886Z" fill="#F6F8E4"/>
    <path fill-rule="evenodd" clip-rule="evenodd" d="M35.278 33.1886C30.9996 33.1886 27.5293 30.1622 27.5293 26.4307C27.5293 22.6995 30.9996 19.6729 35.278 19.6729C39.5563 19.6729 43.0266 22.6995 43.0266 26.4307C43.0266 30.1622 39.5563 33.1886 35.278 33.1886Z" fill="#F6F8E4"/>
    <path fill-rule="evenodd" clip-rule="evenodd" d="M35.278 33.1886C30.9995 33.1886 27.5293 30.1621 27.5293 26.4306C27.5293 22.6993 30.9995 19.6729 35.278 19.6729C39.5564 19.6729 43.0266 22.6993 43.0266 26.4306C43.0266 30.1621 39.5564 33.1886 35.278 33.1886Z" fill="#F7F8E6"/>
    <path fill-rule="evenodd" clip-rule="evenodd" d="M35.278 33.1886C30.9996 33.1886 27.5293 30.1622 27.5293 26.4308C27.5293 22.6992 30.9996 19.6729 35.278 19.6729C39.5563 19.6729 43.0266 22.6992 43.0266 26.4308C43.0266 30.1622 39.5563 33.1886 35.278 33.1886Z" fill="#F7F8E6"/>
    <path opacity="0.34" fill-rule="evenodd" clip-rule="evenodd" d="M36.1012 81.7276C16.3624 81.7276 0.352539 68.0174 0.352539 51.1122C0.352539 34.2058 16.3624 20.4956 36.1012 20.4956C55.84 20.4956 71.8499 34.2058 71.8499 51.1122C71.8499 68.0174 55.84 81.7276 36.1012 81.7276Z" fill="#F1BF40"/>
    <path fill-rule="evenodd" clip-rule="evenodd" d="M35.2773 50.4652C27.3613 50.4652 20.9404 43.5705 20.9404 35.0687C20.9404 26.5681 27.3613 19.6729 35.2773 19.6729C43.1933 19.6729 49.6142 26.5681 49.6142 35.0687C49.6142 43.5705 43.1933 50.4652 35.2773 50.4652Z" fill="#F1BF40"/>
    <path fill-rule="evenodd" clip-rule="evenodd" d="M21.9248 27L35.2107 5L48.9248 27H21.9248Z" fill="#0A090B"/>
    <path fill-rule="evenodd" clip-rule="evenodd" d="M40.9248 12V4.88645C40.9248 2.73956 38.5813 1 35.4248 1C32.2683 1 29.9248 2.73956 29.9248 4.88645V12H40.9248Z" fill="#474647"/>
</svg>
