<svg width="126" height="132" viewBox="0 0 126 132" fill="none" xmlns="http://www.w3.org/2000/svg">
    <path fill-rule="evenodd" clip-rule="evenodd" d="M68.999 2.5C68.999 3.8803 65.6414 5 61.4993 5C57.3576 5 53.999 3.8803 53.999 2.5C53.999 1.11913 57.3576 0 61.4993 0C65.6414 0 68.999 1.11913 68.999 2.5Z" fill="#0A090B"/>
    <path fill-rule="evenodd" clip-rule="evenodd" d="M61.352 36.567C55.2211 36.567 50.2344 32.3235 50.2344 27.106C50.2344 21.8888 55.2211 17.645 61.352 17.645C67.4829 17.645 72.4697 21.8888 72.4697 27.106C72.4697 32.3235 67.4829 36.567 61.352 36.567Z" fill="#F5E5A8"/>
    <path fill-rule="evenodd" clip-rule="evenodd" d="M61.3518 36.567C55.2209 36.567 50.2344 32.3234 50.2344 27.1059C50.2344 21.8886 55.2209 17.645 61.3518 17.645C67.4827 17.645 72.4697 21.8886 72.4697 27.1059C72.4697 32.3234 67.4827 36.567 61.3518 36.567Z" fill="#F5E5A9"/>
    <path fill-rule="evenodd" clip-rule="evenodd" d="M61.352 36.567C55.2211 36.567 50.2344 32.3235 50.2344 27.1062C50.2344 21.8885 55.2211 17.645 61.352 17.645C67.4829 17.645 72.4697 21.8885 72.4697 27.1062C72.4697 32.3235 67.4829 36.567 61.352 36.567Z" fill="#F5E5A9"/>
    <path fill-rule="evenodd" clip-rule="evenodd" d="M61.352 36.567C55.2213 36.567 50.2344 32.3236 50.2344 27.1062C50.2344 21.8884 55.2213 17.645 61.352 17.645C67.4828 17.645 72.4697 21.8884 72.4697 27.1062C72.4697 32.3236 67.4828 36.567 61.352 36.567Z" fill="#F5E5A9"/>
    <path fill-rule="evenodd" clip-rule="evenodd" d="M61.352 35.8912C55.2212 35.8912 50.2344 31.7993 50.2344 26.768C50.2344 21.737 55.2212 17.645 61.352 17.645C67.4829 17.645 72.4697 21.737 72.4697 26.768C72.4697 31.7993 67.4829 35.8912 61.352 35.8912Z" fill="#F6E5AA"/>
    <path fill-rule="evenodd" clip-rule="evenodd" d="M61.689 35.8912C55.744 35.8912 50.9082 31.7991 50.9082 26.768C50.9082 21.7369 55.744 17.645 61.689 17.645C67.6339 17.645 72.4697 21.7369 72.4697 26.768C72.4697 31.7991 67.6339 35.8912 61.689 35.8912Z" fill="#F6E5AA"/>
    <path fill-rule="evenodd" clip-rule="evenodd" d="M61.689 35.8912C55.7439 35.8912 50.9082 31.7995 50.9082 26.7683C50.9082 21.7368 55.7439 17.645 61.689 17.645C67.634 17.645 72.4697 21.7368 72.4697 26.7683C72.4697 31.7995 67.634 35.8912 61.689 35.8912Z" fill="#F6E5AA"/>
    <path fill-rule="evenodd" clip-rule="evenodd" d="M61.689 35.8912C55.7435 35.8912 50.9082 31.7993 50.9082 26.7681C50.9082 21.7369 55.7435 17.645 61.689 17.645C67.6345 17.645 72.4697 21.7369 72.4697 26.7681C72.4697 31.7993 67.6345 35.8912 61.689 35.8912Z" fill="#F6E5AB"/>
    <path fill-rule="evenodd" clip-rule="evenodd" d="M61.689 35.8912C55.744 35.8912 50.9082 31.7992 50.9082 26.7683C50.9082 21.737 55.744 17.645 61.689 17.645C67.6339 17.645 72.4697 21.737 72.4697 26.7683C72.4697 31.7992 67.6339 35.8912 61.689 35.8912Z" fill="#F6E5AB"/>
    <path fill-rule="evenodd" clip-rule="evenodd" d="M61.689 35.8912C55.7435 35.8912 50.9082 31.7993 50.9082 26.768C50.9082 21.7369 55.7435 17.645 61.689 17.645C67.6344 17.645 72.4697 21.7369 72.4697 26.768C72.4697 31.7993 67.6344 35.8912 61.689 35.8912Z" fill="#F5E6AA"/>
    <path fill-rule="evenodd" clip-rule="evenodd" d="M61.689 35.8912C55.7434 35.8912 50.9082 31.7994 50.9082 26.768C50.9082 21.7368 55.7434 17.645 61.689 17.645C67.6345 17.645 72.4697 21.7368 72.4697 26.768C72.4697 31.7994 67.6345 35.8912 61.689 35.8912Z" fill="#F6E6AB"/>
    <path fill-rule="evenodd" clip-rule="evenodd" d="M61.689 35.8912C55.7435 35.8912 50.9082 31.7993 50.9082 26.7683C50.9082 21.7369 55.7435 17.645 61.689 17.645C67.6344 17.645 72.4697 21.7369 72.4697 26.7683C72.4697 31.7993 67.6344 35.8912 61.689 35.8912Z" fill="#F4E6AB"/>
    <path fill-rule="evenodd" clip-rule="evenodd" d="M61.689 35.8912C55.7434 35.8912 50.9082 31.7994 50.9082 26.7683C50.9082 21.7368 55.7434 17.645 61.689 17.645C67.6345 17.645 72.4697 21.7368 72.4697 26.7683C72.4697 31.7994 67.6345 35.8912 61.689 35.8912Z" fill="#F4E6AC"/>
    <path fill-rule="evenodd" clip-rule="evenodd" d="M61.689 34.5401C56.8555 34.5401 52.9297 31.0575 52.9297 26.7686C52.9297 22.4797 56.8555 18.9971 61.689 18.9971C66.5226 18.9971 70.4484 22.4797 70.4484 26.7686C70.4484 31.0575 66.5226 34.5401 61.689 34.5401Z" fill="#F7F2CE"/>
    <path fill-rule="evenodd" clip-rule="evenodd" d="M61.689 34.5401C56.8552 34.5401 52.9297 31.0576 52.9297 26.7686C52.9297 22.4796 56.8552 18.9971 61.689 18.9971C66.5229 18.9971 70.4484 22.4796 70.4484 26.7686C70.4484 31.0576 66.5229 34.5401 61.689 34.5401Z" fill="#F7F2CE"/>
    <path fill-rule="evenodd" clip-rule="evenodd" d="M61.689 34.5401C56.8551 34.5401 52.9297 31.0575 52.9297 26.7685C52.9297 22.4797 56.8551 18.9971 61.689 18.9971C66.523 18.9971 70.4484 22.4797 70.4484 26.7685C70.4484 31.0575 66.523 34.5401 61.689 34.5401Z" fill="#F7F2CE"/>
    <path fill-rule="evenodd" clip-rule="evenodd" d="M61.3521 34.5401C56.7037 34.5401 52.9297 31.2096 52.9297 27.1064C52.9297 23.0034 56.7037 19.6729 61.3521 19.6729C66.0006 19.6729 69.7746 23.0034 69.7746 27.1064C69.7746 31.2096 66.0006 34.5401 61.3521 34.5401Z" fill="#F7F4D5"/>
    <path fill-rule="evenodd" clip-rule="evenodd" d="M61.3521 34.5401C56.7036 34.5401 52.9297 31.2097 52.9297 27.1065C52.9297 23.0035 56.7036 19.6729 61.3521 19.6729C66.0007 19.6729 69.7746 23.0035 69.7746 27.1065C69.7746 31.2097 66.0007 34.5401 61.3521 34.5401Z" fill="#F7F4D5"/>
    <path fill-rule="evenodd" clip-rule="evenodd" d="M61.3521 34.5401C56.7034 34.5401 52.9297 31.2094 52.9297 27.1066C52.9297 23.0036 56.7034 19.6729 61.3521 19.6729C66.0009 19.6729 69.7746 23.0036 69.7746 27.1066C69.7746 31.2094 66.0009 34.5401 61.3521 34.5401Z" fill="#F7F4D6"/>
    <path fill-rule="evenodd" clip-rule="evenodd" d="M61.3521 34.5401C56.7033 34.5401 52.9297 31.2097 52.9297 27.1066C52.9297 23.0035 56.7033 19.6729 61.3521 19.6729C66.001 19.6729 69.7746 23.0035 69.7746 27.1066C69.7746 31.2097 66.001 34.5401 61.3521 34.5401Z" fill="#F7F4D6"/>
    <path fill-rule="evenodd" clip-rule="evenodd" d="M61.3521 34.5401C56.7038 34.5401 52.9297 31.2098 52.9297 27.1066C52.9297 23.0034 56.7038 19.6729 61.3521 19.6729C66.0005 19.6729 69.7746 23.0034 69.7746 27.1066C69.7746 31.2098 66.0005 34.5401 61.3521 34.5401Z" fill="#F7F4D6"/>
    <path fill-rule="evenodd" clip-rule="evenodd" d="M61.3521 34.5401C56.7033 34.5401 52.9297 31.2094 52.9297 27.1062C52.9297 23.0033 56.7033 19.6729 61.3521 19.6729C66.001 19.6729 69.7746 23.0033 69.7746 27.1062C69.7746 31.2094 66.001 34.5401 61.3521 34.5401Z" fill="#F7F4D7"/>
    <path fill-rule="evenodd" clip-rule="evenodd" d="M61.3521 34.5401C56.7032 34.5401 52.9297 31.2096 52.9297 27.1066C52.9297 23.0034 56.7032 19.6729 61.3521 19.6729C66.0011 19.6729 69.7746 23.0034 69.7746 27.1066C69.7746 31.2096 66.0011 34.5401 61.3521 34.5401Z" fill="#F7F7D8"/>
    <path fill-rule="evenodd" clip-rule="evenodd" d="M61.3521 34.5401C56.7033 34.5401 52.9297 31.2097 52.9297 27.1066C52.9297 23.0033 56.7033 19.6729 61.3521 19.6729C66.001 19.6729 69.7746 23.0033 69.7746 27.1066C69.7746 31.2097 66.001 34.5401 61.3521 34.5401Z" fill="#F7F7D8"/>
    <path fill-rule="evenodd" clip-rule="evenodd" d="M61.3521 34.5401C56.7032 34.5401 52.9297 31.2098 52.9297 27.1066C52.9297 23.0032 56.7032 19.6729 61.3521 19.6729C66.0011 19.6729 69.7746 23.0032 69.7746 27.1066C69.7746 31.2098 66.0011 34.5401 61.3521 34.5401Z" fill="#F7F7D9"/>
    <path fill-rule="evenodd" clip-rule="evenodd" d="M61.3521 34.5401C56.7033 34.5401 52.9297 31.2097 52.9297 27.1065C52.9297 23.003 56.7033 19.6729 61.3521 19.6729C66.001 19.6729 69.7746 23.003 69.7746 27.1065C69.7746 31.2097 66.001 34.5401 61.3521 34.5401Z" fill="#F7F7D9"/>
    <path fill-rule="evenodd" clip-rule="evenodd" d="M61.3521 34.5401C56.7032 34.5401 52.9297 31.2098 52.9297 27.1066C52.9297 23.0031 56.7032 19.6729 61.3521 19.6729C66.0011 19.6729 69.7746 23.0031 69.7746 27.1066C69.7746 31.2098 66.0011 34.5401 61.3521 34.5401Z" fill="#F7F7D9"/>
    <path fill-rule="evenodd" clip-rule="evenodd" d="M61.3521 34.5401C56.7033 34.5401 52.9297 31.2099 52.9297 27.1066C52.9297 23.003 56.7033 19.6729 61.3521 19.6729C66.001 19.6729 69.7746 23.003 69.7746 27.1066C69.7746 31.2099 66.001 34.5401 61.3521 34.5401Z" fill="#F7F7DA"/>
    <path fill-rule="evenodd" clip-rule="evenodd" d="M61.3521 34.5401C56.7028 34.5401 52.9297 31.2098 52.9297 27.1065C52.9297 23.0032 56.7028 19.6729 61.3521 19.6729C66.0015 19.6729 69.7746 23.0032 69.7746 27.1065C69.7746 31.2098 66.0015 34.5401 61.3521 34.5401Z" fill="#F7F7DA"/>
    <path fill-rule="evenodd" clip-rule="evenodd" d="M61.3521 33.8643C56.703 33.8643 52.9297 30.6855 52.9297 26.7686C52.9297 22.8517 56.703 19.6729 61.3521 19.6729C66.0013 19.6729 69.7746 22.8517 69.7746 26.7686C69.7746 30.6855 66.0013 33.8643 61.3521 33.8643Z" fill="#F7F7DA"/>
    <path fill-rule="evenodd" clip-rule="evenodd" d="M61.3521 33.8643C56.7033 33.8643 52.9297 30.6857 52.9297 26.7687C52.9297 22.8518 56.7033 19.6729 61.3521 19.6729C66.001 19.6729 69.7746 22.8518 69.7746 26.7687C69.7746 30.6857 66.001 33.8643 61.3521 33.8643Z" fill="#F8F7DB"/>
    <path fill-rule="evenodd" clip-rule="evenodd" d="M61.3521 33.8643C56.7028 33.8643 52.9297 30.6856 52.9297 26.7686C52.9297 22.8516 56.7028 19.6729 61.3521 19.6729C66.0015 19.6729 69.7746 22.8516 69.7746 26.7686C69.7746 30.6856 66.0015 33.8643 61.3521 33.8643Z" fill="#F8F7DB"/>
    <path fill-rule="evenodd" clip-rule="evenodd" d="M61.3521 33.8643C56.7029 33.8643 52.9297 30.6857 52.9297 26.7686C52.9297 22.8515 56.7029 19.6729 61.3521 19.6729C66.0014 19.6729 69.7746 22.8515 69.7746 26.7686C69.7746 30.6857 66.0014 33.8643 61.3521 33.8643Z" fill="#F8F7DB"/>
    <path fill-rule="evenodd" clip-rule="evenodd" d="M61.3521 33.8643C56.7028 33.8643 52.9297 30.6858 52.9297 26.7686C52.9297 22.8514 56.7028 19.6729 61.3521 19.6729C66.0015 19.6729 69.7746 22.8514 69.7746 26.7686C69.7746 30.6858 66.0015 33.8643 61.3521 33.8643Z" fill="#F8F7DC"/>
    <path fill-rule="evenodd" clip-rule="evenodd" d="M61.6891 33.8643C57.2256 33.8643 53.6035 30.6859 53.6035 26.7686C53.6035 22.8513 57.2256 19.6729 61.6891 19.6729C66.1526 19.6729 69.7746 22.8513 69.7746 26.7686C69.7746 30.6859 66.1526 33.8643 61.6891 33.8643Z" fill="#F8F7DC"/>
    <path fill-rule="evenodd" clip-rule="evenodd" d="M61.6891 33.8643C57.2257 33.8643 53.6035 30.6858 53.6035 26.7686C53.6035 22.8514 57.2257 19.6729 61.6891 19.6729C66.1525 19.6729 69.7746 22.8514 69.7746 26.7686C69.7746 30.6858 66.1525 33.8643 61.6891 33.8643Z" fill="#F8F6DD"/>
    <path fill-rule="evenodd" clip-rule="evenodd" d="M61.6891 33.8643C57.2256 33.8643 53.6035 30.6859 53.6035 26.7686C53.6035 22.8513 57.2256 19.6729 61.6891 19.6729C66.1526 19.6729 69.7746 22.8513 69.7746 26.7686C69.7746 30.6859 66.1526 33.8643 61.6891 33.8643Z" fill="#F8F6DD"/>
    <path fill-rule="evenodd" clip-rule="evenodd" d="M61.6891 33.8643C57.2257 33.8643 53.6035 30.6857 53.6035 26.7686C53.6035 22.8512 57.2257 19.6729 61.6891 19.6729C66.1525 19.6729 69.7746 22.8512 69.7746 26.7686C69.7746 30.6857 66.1525 33.8643 61.6891 33.8643Z" fill="#F8F6DD"/>
    <path fill-rule="evenodd" clip-rule="evenodd" d="M61.6891 33.8643C57.2256 33.8643 53.6035 30.686 53.6035 26.7686C53.6035 22.8515 57.2256 19.6729 61.6891 19.6729C66.1526 19.6729 69.7746 22.8515 69.7746 26.7686C69.7746 30.686 66.1526 33.8643 61.6891 33.8643Z" fill="#F8F8DE"/>
    <path fill-rule="evenodd" clip-rule="evenodd" d="M61.6891 33.8643C57.2253 33.8643 53.6035 30.6861 53.6035 26.7686C53.6035 22.8514 57.2253 19.6729 61.6891 19.6729C66.1528 19.6729 69.7746 22.8514 69.7746 26.7686C69.7746 30.6861 66.1528 33.8643 61.6891 33.8643Z" fill="#F8F8DE"/>
    <path fill-rule="evenodd" clip-rule="evenodd" d="M61.6891 33.8643C57.2256 33.8643 53.6035 30.6859 53.6035 26.7686C53.6035 22.851 57.2256 19.6729 61.6891 19.6729C66.1525 19.6729 69.7746 22.851 69.7746 26.7686C69.7746 30.6859 66.1525 33.8643 61.6891 33.8643Z" fill="#F8F8DE"/>
    <path fill-rule="evenodd" clip-rule="evenodd" d="M61.6891 33.8643C57.2253 33.8643 53.6035 30.686 53.6035 26.7686C53.6035 22.8512 57.2253 19.6729 61.6891 19.6729C66.1528 19.6729 69.7746 22.8512 69.7746 26.7686C69.7746 30.686 66.1528 33.8643 61.6891 33.8643Z" fill="#F8F8E0"/>
    <path fill-rule="evenodd" clip-rule="evenodd" d="M61.6891 33.8643C57.2252 33.8643 53.6035 30.6861 53.6035 26.7685C53.6035 22.8511 57.2252 19.6729 61.6891 19.6729C66.1529 19.6729 69.7746 22.8511 69.7746 26.7685C69.7746 30.6861 66.1529 33.8643 61.6891 33.8643Z" fill="#F8F8E0"/>
    <path fill-rule="evenodd" clip-rule="evenodd" d="M61.6891 33.8643C57.2251 33.8643 53.6035 30.686 53.6035 26.7686C53.6035 22.8512 57.2251 19.6729 61.6891 19.6729C66.153 19.6729 69.7746 22.8512 69.7746 26.7686C69.7746 30.686 66.153 33.8643 61.6891 33.8643Z" fill="#F8F8E0"/>
    <path fill-rule="evenodd" clip-rule="evenodd" d="M61.6891 33.8643C57.2253 33.8643 53.6035 30.6859 53.6035 26.7685C53.6035 22.851 57.2253 19.6729 61.6891 19.6729C66.1529 19.6729 69.7746 22.851 69.7746 26.7685C69.7746 30.6859 66.1529 33.8643 61.6891 33.8643Z" fill="#F8F9E1"/>
    <path fill-rule="evenodd" clip-rule="evenodd" d="M61.6891 33.8643C57.2251 33.8643 53.6035 30.686 53.6035 26.7685C53.6035 22.8509 57.2251 19.6729 61.6891 19.6729C66.153 19.6729 69.7746 22.8509 69.7746 26.7685C69.7746 30.686 66.153 33.8643 61.6891 33.8643Z" fill="#F8F9E1"/>
    <path fill-rule="evenodd" clip-rule="evenodd" d="M61.6891 33.8643C57.2253 33.8643 53.6035 30.6862 53.6035 26.7686C53.6035 22.851 57.2253 19.6729 61.6891 19.6729C66.1529 19.6729 69.7746 22.851 69.7746 26.7686C69.7746 30.6862 66.1529 33.8643 61.6891 33.8643Z" fill="#F8F9E1"/>
    <path fill-rule="evenodd" clip-rule="evenodd" d="M61.3522 33.8643C57.0743 33.8643 53.6035 30.6863 53.6035 26.7686C53.6035 22.8509 57.0743 19.6729 61.3522 19.6729C65.6301 19.6729 69.1008 22.8509 69.1008 26.7686C69.1008 30.6863 65.6301 33.8643 61.3522 33.8643Z" fill="#F8F9E3"/>
    <path fill-rule="evenodd" clip-rule="evenodd" d="M61.3522 33.8643C57.0744 33.8643 53.6035 30.6862 53.6035 26.7685C53.6035 22.851 57.0744 19.6729 61.3522 19.6729C65.63 19.6729 69.1008 22.851 69.1008 26.7685C69.1008 30.6862 65.63 33.8643 61.3522 33.8643Z" fill="#F8F9E3"/>
    <path fill-rule="evenodd" clip-rule="evenodd" d="M61.3522 33.8643C57.0739 33.8643 53.6035 30.6863 53.6035 26.7685C53.6035 22.8509 57.0739 19.6729 61.3522 19.6729C65.6305 19.6729 69.1008 22.8509 69.1008 26.7685C69.1008 30.6863 65.6305 33.8643 61.3522 33.8643Z" fill="#F8F9E3"/>
    <path fill-rule="evenodd" clip-rule="evenodd" d="M61.3522 33.8643C57.0742 33.8643 53.6035 30.6864 53.6035 26.7685C53.6035 22.8508 57.0742 19.6729 61.3522 19.6729C65.6302 19.6729 69.1008 22.8508 69.1008 26.7685C69.1008 30.6864 65.6302 33.8643 61.3522 33.8643Z" fill="#F9F9E4"/>
    <path fill-rule="evenodd" clip-rule="evenodd" d="M61.3522 33.8643C57.0743 33.8643 53.6035 30.6863 53.6035 26.7687C53.6035 22.8509 57.0743 19.6729 61.3522 19.6729C65.6301 19.6729 69.1008 22.8509 69.1008 26.7687C69.1008 30.6863 65.6301 33.8643 61.3522 33.8643Z" fill="#F7F8E4"/>
    <path fill-rule="evenodd" clip-rule="evenodd" d="M61.3522 33.8643C57.0738 33.8643 53.6035 30.6864 53.6035 26.7687C53.6035 22.8508 57.0738 19.6729 61.3522 19.6729C65.6306 19.6729 69.1008 22.8508 69.1008 26.7687C69.1008 30.6864 65.6306 33.8643 61.3522 33.8643Z" fill="#F7F8E5"/>
    <path fill-rule="evenodd" clip-rule="evenodd" d="M61.3522 33.1886C57.0737 33.1886 53.6035 30.1621 53.6035 26.4306C53.6035 22.6993 57.0737 19.6729 61.3522 19.6729C65.6307 19.6729 69.1008 22.6993 69.1008 26.4306C69.1008 30.1621 65.6307 33.1886 61.3522 33.1886Z" fill="#F6F8E4"/>
    <path fill-rule="evenodd" clip-rule="evenodd" d="M61.3522 33.1886C57.0738 33.1886 53.6035 30.1622 53.6035 26.4307C53.6035 22.6995 57.0738 19.6729 61.3522 19.6729C65.6306 19.6729 69.1008 22.6995 69.1008 26.4307C69.1008 30.1622 65.6306 33.1886 61.3522 33.1886Z" fill="#F6F8E4"/>
    <path fill-rule="evenodd" clip-rule="evenodd" d="M61.3522 33.1886C57.0737 33.1886 53.6035 30.1621 53.6035 26.4306C53.6035 22.6993 57.0737 19.6729 61.3522 19.6729C65.6307 19.6729 69.1008 22.6993 69.1008 26.4306C69.1008 30.1621 65.6307 33.1886 61.3522 33.1886Z" fill="#F7F8E6"/>
    <path fill-rule="evenodd" clip-rule="evenodd" d="M61.3522 33.1886C57.0738 33.1886 53.6035 30.1622 53.6035 26.4308C53.6035 22.6992 57.0738 19.6729 61.3522 19.6729C65.6305 19.6729 69.1008 22.6992 69.1008 26.4308C69.1008 30.1622 65.6305 33.1886 61.3522 33.1886Z" fill="#F7F8E6"/>
    <path opacity="0.2" fill-rule="evenodd" clip-rule="evenodd" d="M62.9994 131.912C28.2549 131.912 0.0742188 106.044 0.0742188 74.1479C0.0742188 42.2496 28.2549 16.3818 62.9994 16.3818C97.7438 16.3818 125.924 42.2496 125.924 74.1479C125.924 106.044 97.7438 131.912 62.9994 131.912Z" fill="#F1BF40"/>
    <path opacity="0.34" fill-rule="evenodd" clip-rule="evenodd" d="M62.1754 81.7271C42.4366 81.7271 26.4268 68.017 26.4268 51.1117C26.4268 34.2053 42.4366 20.4951 62.1754 20.4951C81.9142 20.4951 97.9241 34.2053 97.9241 51.1117C97.9241 68.017 81.9142 81.7271 62.1754 81.7271Z" fill="#F1BF40"/>
    <path fill-rule="evenodd" clip-rule="evenodd" d="M61.3525 50.4652C53.4365 50.4652 47.0156 43.5705 47.0156 35.0687C47.0156 26.5681 53.4365 19.6729 61.3525 19.6729C69.2685 19.6729 75.6894 26.5681 75.6894 35.0687C75.6894 43.5705 69.2685 50.4652 61.3525 50.4652Z" fill="#F1BF40"/>
    <path fill-rule="evenodd" clip-rule="evenodd" d="M47.999 27L61.2849 5L74.999 27H47.999Z" fill="#0A090B"/>
    <path fill-rule="evenodd" clip-rule="evenodd" d="M66.999 12V4.88645C66.999 2.73956 64.6555 1 61.499 1C58.3425 1 55.999 2.73956 55.999 4.88645V12H66.999Z" fill="#474647"/>
</svg>
