<svg width="35" height="35" viewBox="0 0 35 35" fill="none" xmlns="http://www.w3.org/2000/svg">
    <path d="M17.5 35C27.165 35 35 27.165 35 17.5C35 7.83501 27.165 0 17.5 0C7.83502 0 0 7.83501 0 17.5C0 27.165 7.83502 35 17.5 35Z" fill="#F0C045"/>
    <path d="M17.4956 10C17.4956 10 10.3054 10 8.50081 10.4487C7.53455 10.707 6.73891 11.4682 6.46893 12.4063C6.00001 14.1329 6 17.7085 6 17.7085C6 17.7085 6.00001 21.2977 6.46893 22.9971C6.73891 23.9351 7.52034 24.6828 8.50081 24.9411C10.3196 25.4033 17.4956 25.4033 17.4956 25.4033C17.4956 25.4033 24.6999 25.4033 26.5045 24.9547C27.485 24.6964 28.2664 23.9623 28.5222 23.0107C29.0053 21.2977 29.0053 17.7221 29.0053 17.7221C29.0053 17.7221 29.0195 14.1329 28.5222 12.4063C28.2664 11.4682 27.485 10.7206 26.5045 10.4759C24.6999 10 17.4956 10 17.4956 10V10ZM15.2078 14.4049L21.1901 17.7085L15.2078 20.9984V14.4049V14.4049Z" fill="#232323"/>
</svg>
